<svg width="30" height="22" viewBox="0 0 30 22" fill="none" xmlns="http://www.w3.org/2000/svg">
<path d="M28.5 3.49997H9C8.1 3.49997 7.5 2.89997 7.5 1.99997C7.5 1.09997 8.1 0.499974 9 0.499974H28.5C29.4 0.499974 30 1.09997 30 1.99997C30 2.89997 29.4 3.49997 28.5 3.49997Z" fill="white"/>
<path d="M28.5 12.5H9C8.1 12.5 7.5 11.9 7.5 11C7.5 10.1 8.1 9.49997 9 9.49997H28.5C29.4 9.49997 30 10.1 30 11C30 11.9 29.4 12.5 28.5 12.5Z" fill="white"/>
<path d="M28.5 21.5H9C8.1 21.5 7.5 20.9 7.5 20C7.5 19.1 8.1 18.5 9 18.5H28.5C29.4 18.5 30 19.1 30 20C30 20.9 29.4 21.5 28.5 21.5Z" fill="white"/>
<path d="M1.5 3.49997C1.35 3.49997 1.35 3.49997 1.2 3.49997C1.05 3.49997 1.05 3.49997 0.9 3.34997C0.75 3.34997 0.75 3.19997 0.6 3.19997C0.45 3.19997 0.45 3.04997 0.45 3.04997C0.3 2.89997 0.15 2.74997 0.15 2.59997C-1.45286e-07 2.44997 0 2.14997 0 1.99997C0 1.84997 -1.45286e-07 1.54997 0.15 1.39997C0.3 1.24997 0.3 1.09997 0.45 0.949975C0.9 0.499975 1.5 0.349974 2.1 0.649974C2.25 0.799974 2.4 0.799975 2.55 0.949975C2.85 1.24997 3 1.54997 3 1.99997C3 2.44997 2.85 2.74997 2.55 3.04997C2.25 3.34997 1.95 3.49997 1.5 3.49997Z" fill="white"/>
<path d="M1.5 12.5C1.05 12.5 0.75 12.35 0.45 12.05C0.15 11.75 0 11.45 0 11C0 10.85 0 10.85 0 10.7C0 10.55 -1.45286e-07 10.55 0.15 10.4C0.15 10.25 0.3 10.25 0.3 10.1C0.3 9.94997 0.45 9.94998 0.45 9.94998C0.6 9.79998 0.75 9.64997 0.9 9.64997C1.5 9.34998 2.1 9.49998 2.55 9.94998L2.7 10.1C2.7 10.25 2.85 10.25 2.85 10.4C2.85 10.55 2.85 10.55 3 10.7C3 10.85 3 10.85 3 11C3 11.45 2.85 11.75 2.55 12.05C2.25 12.35 1.95 12.5 1.5 12.5Z" fill="white"/>
<path d="M1.5 21.5C1.05 21.5 0.75 21.35 0.45 21.05C0.15 20.75 0 20.45 0 20C0 19.85 -1.45286e-07 19.55 0.15 19.4C0.3 19.25 0.3 19.1 0.45 18.95C1.05 18.35 1.95 18.35 2.55 18.95C2.85 19.25 3 19.55 3 20C3 20.45 2.85 20.75 2.55 21.05C2.25 21.35 1.95 21.5 1.5 21.5Z" fill="white"/>
</svg>
