<svg width="35" height="35" viewBox="0 0 35 35" fill="none" xmlns="http://www.w3.org/2000/svg">
<path fill-rule="evenodd" clip-rule="evenodd" d="M27.2805 7.71888C27.8501 8.2884 27.8501 9.21176 27.2805 9.78128L9.78055 27.2813C9.21103 27.8508 8.28767 27.8508 7.71815 27.2813C7.14864 26.7118 7.14864 25.7884 7.71815 25.2189L25.2182 7.71888C25.7877 7.14937 26.711 7.14937 27.2805 7.71888Z" fill="white"/>
<path fill-rule="evenodd" clip-rule="evenodd" d="M7.71815 7.71888C8.28767 7.14937 9.21103 7.14937 9.78055 7.71888L27.2805 25.2189C27.8501 25.7884 27.8501 26.7118 27.2805 27.2813C26.711 27.8508 25.7877 27.8508 25.2182 27.2813L7.71815 9.78128C7.14864 9.21176 7.14864 8.2884 7.71815 7.71888Z" fill="white"/>
</svg>
