<svg width="137" height="30" viewBox="0 0 137 30" fill="none" xmlns="http://www.w3.org/2000/svg">
<path d="M32.9102 6.42859H38.1682C41.4787 6.42859 43.8156 7.50002 43.8156 11.0065V11.1039C43.8156 12.6624 43.134 14.1234 41.1866 14.8052C43.7183 15.3896 44.692 16.7533 44.692 18.9935V19.0909C44.692 22.4026 42.4524 24.0585 38.9471 24.0585H32.9102V6.42859ZM38.2655 14.1234C40.8945 14.1234 41.8682 13.1494 41.8682 11.0065V10.9091C41.8682 8.86365 40.6998 8.08443 38.2655 8.08443H35.0523V14.1234H38.2655ZM38.9471 22.4026C41.4787 22.4026 42.6472 21.2338 42.6472 19.0909V18.9935C42.6472 16.8507 41.4787 15.7792 38.5576 15.7792H35.0523V22.4026H38.9471Z" fill="white"/>
<path d="M47.2227 11.1039H49.2674V13.4416C50.0464 11.9805 51.2148 11.0065 53.5517 10.9091V12.8572C50.9227 12.9546 49.2674 13.8312 49.2674 16.9481V24.0585H47.2227V11.1039Z" fill="white"/>
<path d="M54.5254 20.4546C54.5254 17.4351 57.6412 16.4611 60.9518 16.4611H62.8019V15.487C62.8019 13.4416 62.0229 12.565 60.0755 12.565C58.3228 12.565 57.3491 13.3442 57.1544 14.9026H55.1096C55.4017 11.9805 57.7386 10.9091 60.1729 10.9091C62.6071 10.9091 64.8466 11.8831 64.8466 15.487V23.9611H62.8019V22.4026C61.8282 23.5715 60.6597 24.2533 58.8097 24.2533C56.3754 24.2533 54.5254 23.0844 54.5254 20.4546ZM62.8019 19.4805V17.9221H61.0492C58.4202 17.9221 56.5702 18.6039 56.5702 20.4546C56.5702 21.8182 57.2518 22.5974 59.0044 22.5974C61.1466 22.5974 62.8019 21.526 62.8019 19.4805Z" fill="white"/>
<path d="M67.6719 7.1104C67.6719 6.33118 68.2563 5.74677 69.0355 5.74677C69.8147 5.74677 70.3992 6.33118 70.3992 7.1104C70.3992 7.88962 69.8147 8.47404 69.0355 8.47404C68.2563 8.47404 67.6719 7.79222 67.6719 7.1104ZM68.0615 11.1039H70.1069V23.9611H68.0615V11.1039Z" fill="white"/>
<path d="M73.416 11.1039H75.4608V13.1494C76.045 11.9805 77.5056 10.9091 79.6477 10.9091C82.2767 10.9091 84.2241 12.3702 84.2241 16.0715V23.9611H82.1793V15.8767C82.1793 13.6364 81.2056 12.565 79.1609 12.565C77.3108 12.565 75.5582 13.7338 75.5582 16.0715V23.8637H73.5134V11.1039H73.416Z" fill="white"/>
<path d="M87.7289 20.8442V12.9546H85.8789V11.2013H87.7289V8.27924H89.7737V11.2013H92.7922V12.9546H89.7737V20.6494C89.7737 21.9156 90.3579 22.5 91.3316 22.5C92.0132 22.5 92.5001 22.4026 92.8896 22.2078V23.9611C92.5001 24.1559 92.0132 24.2533 91.1369 24.2533C88.8974 24.2533 87.7289 22.7922 87.7289 20.8442Z" fill="white"/>
<path d="M95.1289 11.1039H97.1737V13.4416C97.9527 11.9805 99.1211 11.0065 101.458 10.9091V12.8572C98.829 12.9546 97.1737 13.8312 97.1737 16.9481V24.0585H95.1289V11.1039Z" fill="white"/>
<path d="M103.406 19.2857V11.1039H105.451V19.1883C105.451 21.4286 106.425 22.5 108.47 22.5C110.32 22.5 111.975 21.3312 111.975 18.9935V11.2013H114.02V24.0584H111.975V22.013C111.391 23.1818 109.93 24.2532 107.885 24.2532C105.354 24.2532 103.406 22.8896 103.406 19.2857Z" fill="white"/>
<path d="M116.26 20.065H118.207C118.402 21.6234 119.181 22.5974 121.226 22.5974C123.173 22.5974 124.049 21.9156 124.049 20.552C124.049 19.1883 123.076 18.7987 121.031 18.4091C117.72 17.8247 116.552 16.8507 116.552 14.6104C116.552 12.1754 118.889 11.0065 120.934 11.0065C123.27 11.0065 125.218 11.9806 125.607 14.7078H123.66C123.368 13.3442 122.589 12.6624 120.934 12.6624C119.473 12.6624 118.499 13.4416 118.499 14.513C118.499 15.6819 119.181 16.1689 121.518 16.5585C124.147 17.0455 126.094 17.6299 126.094 20.3572C126.094 22.6948 124.536 24.2533 121.323 24.2533C118.305 24.2533 116.455 22.6948 116.26 20.065Z" fill="white"/>
<path d="M128.723 20.8442V12.9546H126.873V11.2013H128.723V8.27924H130.768V11.2013H133.786V12.9546H130.768V20.6494C130.768 21.9156 131.352 22.5 132.326 22.5C133.007 22.5 133.494 22.4026 133.884 22.2078V23.9611C133.494 24.1559 133.007 24.2533 132.131 24.2533C129.892 24.2533 128.723 22.7922 128.723 20.8442Z" fill="white"/>
<path d="M15.1882 20.7468C16.1619 20.7468 17.1356 20.4546 18.1093 19.9676C20.8357 18.4091 21.8094 14.8052 20.2515 12.078C18.6935 9.35069 15.0908 8.37667 12.3645 9.93511C11.0013 10.7143 10.125 11.9806 9.6381 13.4416C9.24862 14.9026 9.44336 16.4611 10.2223 17.8247C11.196 19.7728 13.1434 20.7468 15.1882 20.7468ZM11.3908 14.026C11.6829 13.052 12.2671 12.1754 13.2408 11.6884C13.825 11.2987 14.5066 11.2013 15.1882 11.2013C16.5514 11.2013 17.8172 11.8832 18.5962 13.1494C19.6672 15 18.9856 17.4351 17.1356 18.5065C15.2856 19.578 12.8513 18.8961 11.7802 17.0455C11.2934 16.0715 11.0987 15 11.3908 14.026Z" fill="white"/>
<path d="M21.6149 11.2013C22.3939 12.4675 23.5623 13.4416 25.0229 13.8312C25.5097 13.9286 25.9966 14.026 26.4834 14.026C26.7755 14.026 26.9703 14.026 27.2624 13.9286C27.165 13.3442 27.0676 12.7597 26.9703 12.0779C26.4834 12.1753 25.9966 12.0779 25.5097 11.9805C24.536 11.6883 23.757 11.1039 23.1728 10.2273C22.686 9.35065 22.4912 8.37662 22.7833 7.40259C22.8807 6.91558 23.1728 6.52597 23.4649 6.13636C22.9781 5.74675 22.5886 5.35714 22.0044 4.96753C21.5175 5.55194 21.2254 6.23376 21.0307 6.91558C20.6412 8.47402 20.8359 9.93506 21.6149 11.2013Z" fill="white"/>
<path d="M25.0229 16.1689C23.5623 16.5585 22.3939 17.4351 21.6149 18.7987C20.8359 20.065 20.6412 21.6234 21.0307 23.0844C21.2254 23.8637 21.6149 24.4481 22.0044 25.0325C22.4912 24.6429 22.9781 24.2533 23.4649 23.8637C23.1728 23.4741 22.9781 23.0844 22.7833 22.5974C22.4912 21.6234 22.686 20.6494 23.1728 19.7728C23.6597 18.8961 24.536 18.3117 25.5097 18.0195C25.9966 17.9221 26.4834 17.8247 26.9703 17.9221C27.0676 17.3377 27.165 16.7533 27.2624 16.0715C26.4834 15.8767 25.8018 15.9741 25.0229 16.1689Z" fill="white"/>
<path d="M15.0906 24.3506C16.6485 24.3506 18.0117 25.3247 18.5959 26.6883C19.1802 26.4935 19.7644 26.2987 20.3486 26.0065C19.4723 23.961 17.5249 22.5 15.188 22.5C12.8511 22.5 10.8063 23.961 10.0273 26.0065C10.6116 26.2987 11.1958 26.4935 11.78 26.6883C12.2669 25.3247 13.5327 24.3506 15.0906 24.3506Z" fill="white"/>
<path d="M15.0917 7.50002C17.4286 7.50002 19.4734 6.03898 20.2523 3.99352C19.6681 3.70132 19.1812 3.50651 18.4997 3.31171C17.9154 4.67534 16.5522 5.64937 14.9943 5.64937C13.4364 5.64937 12.0732 4.67534 11.489 3.31171C10.9048 3.50651 10.3205 3.70132 9.73633 3.99352C10.8074 6.03898 12.7548 7.50002 15.0917 7.50002Z" fill="white"/>
<path d="M8.66505 18.7987C7.88609 17.5325 6.71765 16.5584 5.2571 16.1688C4.47813 15.974 3.79654 15.974 3.01758 16.0714C3.11495 16.6558 3.21232 17.2403 3.30969 17.9221C3.50443 17.9221 3.6018 17.9221 3.79654 17.9221C4.08865 17.9221 4.47813 17.9221 4.77024 18.0195C5.74395 18.3117 6.52291 18.8961 7.10713 19.7727C7.88609 21.1364 7.69135 22.7922 6.81502 23.961C7.30187 24.3506 7.69135 24.7403 8.27557 25.1299C9.54139 23.2792 9.8335 20.7467 8.66505 18.7987Z" fill="white"/>
<path d="M5.2571 13.8312C6.71765 13.4416 7.88609 12.5649 8.66505 11.2013C9.44402 9.93506 9.63876 8.37662 9.24928 6.91558C9.05454 6.13636 8.66506 5.55194 8.27557 4.96753C7.69135 5.35714 7.2045 5.74675 6.81502 6.13636C7.10713 6.52597 7.30187 6.91558 7.49661 7.40259C7.78872 8.37662 7.59398 9.35065 7.10713 10.2273C6.62028 11.1039 5.74395 11.6883 4.77024 11.9805C4.28339 12.0779 3.79654 12.1753 3.30969 12.0779C3.21232 12.6623 3.11495 13.2468 3.01758 13.9286C3.30969 13.9286 3.50443 14.026 3.79654 14.026C4.28339 14.026 4.77024 14.026 5.2571 13.8312Z" fill="white"/>
</svg>
