<svg width="100" height="32" viewBox="0 0 100 32" fill="none" xmlns="http://www.w3.org/2000/svg">
<path d="M24.3458 0H7.68815C3.4421 0 0 3.43845 0 7.68V24.32C0 28.5615 3.4421 32 7.68815 32H24.3458C28.5919 32 32.034 28.5615 32.034 24.32V7.68C32.034 3.43845 28.5919 0 24.3458 0Z" fill="url(#paint0_linear_567_109)"/>
<path fill-rule="evenodd" clip-rule="evenodd" d="M16.0165 26.2398C21.6779 26.2398 26.2674 21.6552 26.2674 15.9998C26.2674 10.3444 21.6779 5.75977 16.0165 5.75977C10.3551 5.75977 5.76562 10.3444 5.76562 15.9998C5.76562 21.6552 10.3551 26.2398 16.0165 26.2398ZM14.2075 11.112C14.2074 10.8174 14.4462 10.5786 14.7408 10.5786H17.292C17.5865 10.5786 17.8253 10.8174 17.8253 11.1119V14.2307H14.2078V17.7687H17.8253V20.8875C17.8253 21.182 17.5865 21.4208 17.292 21.4208H14.7407C14.4462 21.4208 14.2074 21.182 14.2074 20.8875V17.8828H11.1232C10.8287 17.8828 10.5899 17.644 10.5899 17.3495V14.764C10.5899 14.4695 10.8287 14.2307 11.1232 14.2307H14.2078L14.2075 11.112ZM17.8253 14.2307H20.9106C21.2051 14.2307 21.4439 14.4695 21.4439 14.764V17.3495C21.4439 17.644 21.2051 17.8828 20.9106 17.8828H17.826L17.8253 14.2307Z" fill="white"/>
<path d="M61.4637 13.0817H57.0047C56.9233 12.5431 56.757 12.0646 56.5059 11.6464C56.2548 11.2218 55.9324 10.8606 55.5387 10.5627C55.1451 10.2649 54.6904 10.0368 54.1745 9.87833C53.6655 9.7199 53.1124 9.64068 52.5151 9.64068C51.436 9.64068 50.496 9.891 49.6951 10.3916C48.8943 10.8859 48.2733 11.6084 47.8321 12.5589C47.391 13.5032 47.1704 14.6502 47.1704 16C47.1704 17.3878 47.391 18.5539 47.8321 19.4981C48.2801 20.4423 48.9045 21.1553 49.7053 21.6369C50.5062 22.1185 51.4326 22.3593 52.4846 22.3593C53.0751 22.3593 53.6214 22.2864 54.1236 22.1407C54.6327 21.9949 55.084 21.7826 55.4776 21.5038C55.8713 21.2186 56.1971 20.8733 56.455 20.4677C56.7197 20.0621 56.9029 19.5995 57.0047 19.0798L61.4637 19.0989C61.3484 19.9924 61.0599 20.8542 60.5984 21.6844C60.1437 22.5082 59.5295 23.2465 58.7557 23.8992C57.9888 24.5456 57.0726 25.0589 56.007 25.4392C54.9483 25.8131 53.7504 26 52.4133 26C50.5537 26 48.8909 25.6071 47.4249 24.8213C45.9657 24.0355 44.8119 22.898 43.9636 21.4087C43.122 19.9195 42.7012 18.1166 42.7012 16C42.7012 13.8771 43.1288 12.071 43.9839 10.5817C44.8391 9.09252 45.9996 7.95817 47.4656 7.17871C48.9316 6.3929 50.5808 6 52.4133 6C53.6214 6 54.7413 6.15843 55.7729 6.47528C56.8113 6.79214 57.7309 7.25475 58.5318 7.86312C59.3326 8.46515 59.9842 9.20342 60.4864 10.0779C60.9954 10.9525 61.3212 11.9537 61.4637 13.0817Z" fill="white"/>
<path d="M64.6816 25.7338V6.26611H69.0897V22.3403H78.0282V25.7338H64.6816Z" fill="white"/>
<path d="M82.5316 6.26611L87.5709 21.057H87.7644L92.8139 6.26611H97.7005L90.5131 25.7338H84.8324L77.6348 6.26611H82.5316Z" fill="white"/>
<defs>
<linearGradient id="paint0_linear_567_109" x1="2.66667" y1="29.3333" x2="30.6376" y2="1.97032" gradientUnits="userSpaceOnUse">
<stop stop-color="#BDFDE2"/>
<stop offset="1" stop-color="#9BDAF6"/>
</linearGradient>
</defs>
</svg>
