<svg width="125" height="30" viewBox="0 0 125 30" fill="none" xmlns="http://www.w3.org/2000/svg">
<g clip-path="url(#clip0_452_335)">
<path d="M33.7827 15.438C33.7827 10.5357 36.3786 8.10453 41.4712 8.10453C43.5518 8.10453 44.7804 8.48317 45.831 8.96144L44.9393 11.4126C43.6113 11.0538 43.0568 10.9144 41.5108 10.8941C38.9744 10.8546 37.2112 12.289 37.2112 15.2383C37.2112 18.188 39.0739 19.7623 41.9075 19.7623C43.2744 19.7623 44.0872 19.6428 45.1566 19.3638L45.8703 21.9145C44.5228 22.4127 43.3541 22.5921 41.5508 22.5921C36.4186 22.5921 33.7827 20.0613 33.7827 15.438ZM55.304 16.9525C55.304 15.1989 54.8684 13.8637 53.0443 13.8637C51.2612 13.8637 50.7662 15.1989 50.7662 16.9728C50.7662 18.8457 51.321 19.9815 53.0842 19.9815C54.8684 19.9815 55.3036 18.8058 55.3036 16.9525H55.304ZM47.4364 17.0521C47.4364 13.4448 49.676 11.2328 53.1041 11.2328C56.9483 11.2328 58.673 13.4053 58.673 16.9529C58.673 20.6591 56.2544 22.6323 52.9254 22.6323C49.3589 22.6323 47.4364 20.4598 47.4364 17.0518V17.0521ZM59.7441 11.5122H63.2911L65.1142 17.4108L65.669 19.583L66.2838 17.4108L68.3042 11.5122H71.7723L67.5714 22.3928H63.6474L59.7441 11.5122ZM79.3616 19.6229V17.9094L77.7379 17.9496C76.7659 17.9692 76.0536 18.2881 76.0536 19.0852C76.0536 19.7229 76.6677 20.0018 77.2621 20.0018C77.896 20.0018 78.6492 19.8221 79.3622 19.6233L79.3616 19.6229ZM72.8425 19.2841C72.8425 16.534 75.3399 15.976 77.4802 15.976H79.3622V15.2981C79.3622 14.342 78.7474 14.063 77.4011 14.063C76.3304 14.063 75.1811 14.3021 74.1703 14.5409L73.5172 12.1296C74.7455 11.6517 76.1722 11.2531 77.896 11.2531C81.2455 11.2531 82.5925 12.2097 82.5925 14.6608V19.5033C82.5925 19.862 82.9496 19.9417 83.5631 19.9616L83.4445 22.4725C83.1869 22.4925 82.9286 22.4925 82.6709 22.4925C81.3642 22.4925 79.977 22.2733 79.6798 21.3366C78.8871 21.9548 77.7577 22.5722 76.5682 22.5722C74.1907 22.5722 72.8425 21.4563 72.8425 19.2841ZM86.0217 7.36685H89.331V22.3932H86.0217V7.36685ZM98.5064 15.8365C98.5459 14.5213 97.9713 13.6046 96.9011 13.6046C95.7717 13.6046 95.0389 14.4017 94.979 15.8365H98.5064ZM91.5899 17.1115C91.5899 12.668 93.9088 11.2531 97.1786 11.2531C100.587 11.2531 101.895 13.4851 101.895 16.7732V17.9688H94.8801C94.861 19.6826 96.2073 20.0015 97.9305 20.0015C98.6645 20.0015 99.8935 19.7623 101.023 19.5631L101.518 22.0935C100.31 22.4526 98.764 22.6323 97.456 22.6323C93.8897 22.6323 91.5899 21.4563 91.5899 17.1115ZM104.155 11.5122H107.464V12.6082C108.119 12.11 109.545 11.2328 110.992 11.2328C114.38 11.2328 114.618 13.106 114.618 15.5775V22.3932H111.328V15.8565C111.328 14.3619 110.992 14.1028 109.881 14.1028C108.891 14.1028 107.999 14.4217 107.464 14.6807V22.3928H104.155V11.5122ZM117.868 19.0051V13.9633H116.284V11.5122H117.868V9.27989H121.158V11.5122H124.507V13.9633H121.158V18.9851C121.158 19.7823 121.455 19.8421 122.348 19.8421C123.08 19.8421 124.686 19.6229 124.686 19.6229L125.003 22.2334C124.23 22.4526 123.18 22.612 122.387 22.612C120.306 22.612 117.868 22.7117 117.868 19.0051ZM14.916 6.99555V-0.00134277C6.67417 -0.00134277 0 6.71106 0 14.9992C0 23.2877 6.67455 30.0005 14.916 30.0005V23.0036C10.517 23.0036 6.95746 19.4236 6.95746 14.9992C6.95746 10.5756 10.517 6.99555 14.916 6.99555Z" fill="white"/>
<path d="M22.9045 6.99555C22.4477 6.99555 21.9953 6.9051 21.5732 6.72925C21.1512 6.55346 20.7677 6.29576 20.4447 5.9709C20.1216 5.64603 19.8654 5.26037 19.6906 4.83591C19.5158 4.41146 19.4258 3.95654 19.4258 3.49712C19.4258 3.03769 19.5158 2.58277 19.6906 2.15831C19.8654 1.73386 20.1216 1.3482 20.4447 1.02333C20.7677 0.698472 21.1512 0.440775 21.5732 0.264962C21.9953 0.0891476 22.4477 -0.00134278 22.9045 -0.00134277C23.8271 -0.00134275 24.7119 0.367244 25.3644 1.02333C26.0167 1.67942 26.3832 2.56927 26.3832 3.49712C26.3832 4.42496 26.0167 5.31481 25.3644 5.9709C24.7119 6.627 23.8271 6.99555 22.9045 6.99555Z" fill="white"/>
<path d="M22.8459 29.9999C21.9233 29.9999 21.0385 29.6314 20.3861 28.9753C19.7337 28.3192 19.3672 27.4293 19.3672 26.5015C19.3672 25.5737 19.7337 24.6838 20.3861 24.0277C21.0385 23.3716 21.9233 23.0031 22.8459 23.0031C23.7685 23.0031 24.6533 23.3716 25.3058 24.0277C25.9581 24.6838 26.3246 25.5737 26.3246 26.5015C26.3246 27.4293 25.9581 28.3192 25.3058 28.9753C24.6533 29.6314 23.7685 29.9999 22.8459 29.9999Z" fill="white"/>
<path d="M22.8749 14.9991C22.8749 19.4235 19.3154 23.0035 14.916 23.0035V6.99512C19.3151 6.99512 22.8749 10.5748 22.8749 14.9987" fill="white"/>
</g>
<defs>
<clipPath id="clip0_452_335">
<rect width="125" height="30" fill="white"/>
</clipPath>
</defs>
</svg>
