<svg width="158" height="30" viewBox="0 0 158 30" fill="none" xmlns="http://www.w3.org/2000/svg">
<g clip-path="url(#clip0_453_668)">
<path fill-rule="evenodd" clip-rule="evenodd" d="M0 28.7941L27.599 5.75389C27.9372 5.45839 28.211 5.09642 28.4037 4.69042C28.5966 4.2844 28.7041 3.84302 28.7196 3.39365C28.7352 2.94426 28.6584 2.49647 28.4942 2.07803C28.33 1.65959 28.0819 1.27944 27.765 0.961145C27.4475 0.64287 27.0679 0.393461 26.6502 0.228455C26.2323 0.0634471 25.7851 -0.0136338 25.3364 0.00197399C24.8876 0.0175818 24.4468 0.125548 24.0414 0.319183C23.636 0.512819 23.2746 0.787974 22.9798 1.12754L0 28.7941ZM13.3128 4.2517L1.69329 12.9877L10.4079 1.3397C10.5862 1.10155 10.8134 0.90454 11.0741 0.761968C11.3348 0.619394 11.6231 0.534588 11.9194 0.513292C12.2156 0.491995 12.5129 0.5347 12.7913 0.638518C13.0696 0.742337 13.3225 0.904852 13.5328 1.11507C13.7435 1.32565 13.9065 1.57918 14.0108 1.85846C14.1151 2.13774 14.1584 2.43626 14.1374 2.73376C14.1166 3.03124 14.0322 3.32075 13.8899 3.58266C13.7477 3.84457 13.5508 4.07273 13.3128 4.2517ZM27.3821 18.3594L15.7625 27.0954L24.4772 15.4474C24.6555 15.2092 24.8826 15.0121 25.1434 14.8696C25.4041 14.727 25.6924 14.6422 25.9886 14.6209C26.2847 14.5996 26.5821 14.6423 26.8605 14.7462C27.1388 14.85 27.3918 15.0125 27.6021 15.2227C27.8128 15.4333 27.9758 15.6869 28.0801 15.9661C28.1844 16.2454 28.2275 16.5439 28.2067 16.8414C28.1859 17.1389 28.1014 17.4283 27.9591 17.6903C27.8169 17.9522 27.6201 18.1804 27.3821 18.3594Z" fill="white"/>
<path fill-rule="evenodd" clip-rule="evenodd" d="M44.1227 14.4014C44.1227 10.5986 47.3471 7.3057 51.816 7.3057C54.0312 7.3057 56.0102 8.11613 57.4176 9.3897C57.5017 9.4658 57.6313 9.46296 57.7096 9.38078L60.4007 6.5537C60.4788 6.47153 60.4759 6.34121 60.3926 6.26424C58.1699 4.21121 55.1193 2.98657 51.816 2.98657C45.2034 2.98657 39.8145 7.98356 39.8145 14.4014C39.8145 20.8193 45.2034 25.8162 51.816 25.8162C54.7559 25.8162 57.6615 24.8279 59.8139 23.133L60.5591 22.5463C60.6086 22.5073 60.6375 22.4477 60.6375 22.3845V21.4346V19.3227L60.6373 19.3226L60.6371 19.3224V14.4015L60.6368 14.4013L60.6366 14.4011V12.7559C60.6366 12.6423 60.5448 12.5502 60.4314 12.5502H54.9813C54.9249 12.5502 54.8709 12.5736 54.8321 12.6147L51.3468 16.3164C51.2234 16.4477 51.3161 16.6633 51.496 16.6633H56.1241C56.2375 16.6633 56.3293 16.7553 56.3293 16.869V19.5426V20.1777C56.3293 20.2508 56.2907 20.3186 56.2273 20.3546C54.9771 21.0624 53.4193 21.4971 51.816 21.4971C47.3471 21.4971 44.1227 18.2042 44.1227 14.4014ZM128.743 3.50068H133.572C133.74 3.50068 133.836 3.69361 133.736 3.82927L125.867 14.4119C125.812 14.4855 125.813 14.5867 125.868 14.6597L133.728 24.9715C133.831 25.1067 133.734 25.302 133.564 25.302H128.338C128.274 25.302 128.213 25.2714 128.174 25.2193L123.166 18.4851C123.085 18.3749 122.92 18.3749 122.837 18.4851L117.83 25.2192C117.791 25.2713 117.73 25.302 117.666 25.302H112.439C112.269 25.302 112.173 25.1067 112.276 24.9714L120.136 14.6597C120.192 14.5867 120.192 14.4855 120.138 14.4119L112.268 3.82932C112.168 3.69366 112.264 3.50072 112.433 3.50072H117.261C117.325 3.50072 117.385 3.53059 117.424 3.58152L122.84 10.6859C122.921 10.7936 123.082 10.7936 123.165 10.6859L128.58 3.58147C128.618 3.53056 128.68 3.50068 128.743 3.50068ZM79.2756 3.50068H74.6187C74.5376 3.50068 74.4641 3.54862 74.4312 3.62298L64.9709 25.0129C64.9107 25.1489 65.0101 25.302 65.1585 25.302H69.6319C69.7138 25.302 69.7878 25.2531 69.8202 25.1779L71.6284 20.9828H82.2659L84.0741 25.1779C84.1065 25.2531 84.1805 25.302 84.2624 25.302H88.7358C88.8842 25.302 88.9835 25.1489 88.9234 25.0129L79.4631 3.62298C79.4302 3.54862 79.3567 3.50068 79.2756 3.50068ZM80.5816 17.075H73.3126L76.7588 9.07952C76.8301 8.91407 77.0642 8.91407 77.1355 9.07952L80.5816 17.075ZM93.9748 3.50068C93.8616 3.50068 93.7697 3.59276 93.7697 3.70636V25.0963C93.7697 25.2098 93.8616 25.302 93.9748 25.302H98.4882L98.4947 25.3019L98.5027 25.3015H105.979C106.042 25.3015 106.101 25.2726 106.14 25.2233L108.893 21.7272C108.999 21.5923 108.903 21.3941 108.732 21.3941H98.6934V3.70636C98.6934 3.59276 98.6015 3.50068 98.4882 3.50068H93.9748ZM157.161 3.50068C157.275 3.50068 157.367 3.59276 157.367 3.70636V7.40845C157.367 7.52204 157.275 7.61413 157.161 7.61413H144.442C144.33 7.61413 144.238 7.70621 144.238 7.8198V12.1391C144.238 12.2526 144.33 12.3447 144.442 12.3447H156.341C156.455 12.3447 156.546 12.4368 156.546 12.5503V16.2524C156.546 16.3661 156.455 16.4581 156.341 16.4581H144.442C144.33 16.4581 144.238 16.5503 144.238 16.6638V20.9829C144.238 21.0965 144.33 21.1886 144.442 21.1886H157.572C157.686 21.1886 157.778 21.2807 157.778 21.3943V25.0963C157.778 25.2099 157.686 25.302 157.572 25.302H141.786H139.519C139.406 25.302 139.313 25.2099 139.313 25.0963V3.70637C139.313 3.59278 139.406 3.5007 139.519 3.5007H140.64V3.50069V3.50068H157.161Z" fill="white"/>
</g>
<defs>
<clipPath id="clip0_453_668">
<rect width="158" height="30" fill="white"/>
</clipPath>
</defs>
</svg>
