<svg width="172" height="41" viewBox="0 0 172 41" fill="none" xmlns="http://www.w3.org/2000/svg">
<path d="M29.8293 30.6966C29.8293 30.6966 25.4228 25.5572 23.954 23.8417C23.7874 23.6458 23.7269 23.3794 23.7875 23.1367C23.8329 23.0033 23.9314 22.8545 24.0222 22.7527L24.7036 22.0004L32.2216 30.6966H29.8293ZM25.1806 30.6966L19.7219 24.3353L19.4493 23.9905C19.1919 23.6926 19.1994 23.2304 19.4644 22.9406L29.6399 11.0955H32.1611L21.925 22.7841C21.6601 23.0739 21.6525 23.5359 21.91 23.8338L27.8154 30.6966H25.1806ZM18.8209 21.3503C16.7162 23.7868 10.7957 30.6966 10.7957 30.6966H8.16857L16.2241 21.3739C16.4814 21.0762 16.4814 20.6296 16.2241 20.3398L8.22913 11.0955H10.7577L18.7981 20.418C19.0027 20.6922 19.0405 21.0919 18.8209 21.3503ZM18.7226 26.6384L17.9428 27.5471L15.2398 30.6964H12.7946L17.9654 24.68C17.9654 24.68 18.5409 25.3615 18.7377 25.5888C18.9951 25.8943 18.9876 26.3485 18.7226 26.6384ZM15.2021 11.0955C15.2021 11.0955 19.5326 16.2739 21.0998 17.8798C21.3495 18.1306 21.3041 18.4595 21.0772 18.726C20.2443 19.7052 20.2215 19.7209 20.2215 19.7209L12.7716 11.0955H15.2021ZM21.6979 15.1537L22.4776 14.2448L25.1806 11.0957H27.626L22.455 17.1121C22.455 17.1121 21.8797 16.4306 21.6827 16.2035C21.4254 15.8978 21.4329 15.4434 21.6979 15.1537ZM20.0546 0.921875C8.97879 0.921875 0 9.89351 0 20.9609C0 32.0282 8.97879 41 20.0546 41C31.1307 41 40.1094 32.0282 40.1094 20.9609C40.1094 9.89351 31.1307 0.921875 20.0546 0.921875Z" fill="white"/>
<path d="M53.9425 12.6873H50.8535V28.7237H53.9425V12.6873Z" fill="white"/>
<path d="M70.1288 17.0485C68.5957 17.0485 67.1855 17.6859 66.3463 19.0168C65.7194 17.7194 64.4659 17.0485 62.8432 17.0485C61.4667 17.0485 60.1907 17.6525 59.4186 18.8937V17.2721H56.4414V28.7235H59.4186V22.3605C59.4186 20.7613 60.5041 19.5647 61.8806 19.5647H62.0599C63.2796 19.5647 63.8504 20.3364 63.8504 21.8571V28.7235H66.8274V22.3605C66.8274 20.7613 67.9017 19.5647 69.2784 19.5647H69.4575C70.6774 19.5647 71.2258 20.3364 71.2258 21.8571V28.7235H74.2027V21.5105C74.2027 20.1575 73.8783 19.0726 73.229 18.2563C72.5687 17.4512 71.539 17.0485 70.1288 17.0485Z" fill="white"/>
<path d="M89.9284 17.0485C88.3939 17.0485 86.9847 17.6859 86.1451 19.0168C85.5183 17.7194 84.2647 17.0485 82.642 17.0485C81.2655 17.0485 79.9895 17.6525 79.2174 18.8937V17.2721H76.2402V28.7235H79.2174V22.3605C79.2174 20.7613 80.3029 19.5647 81.6795 19.5647H81.8587C83.0784 19.5647 83.6492 20.3364 83.6492 21.8571V28.7235H86.6262V22.3605C86.6262 20.7613 87.7005 19.5647 89.078 19.5647H89.2556C90.476 19.5647 91.0237 20.3364 91.0237 21.8571V28.7235H94.001V21.5105C94.001 20.1575 93.6777 19.0726 93.0273 18.2563C92.3675 17.4512 91.3377 17.0485 89.9284 17.0485Z" fill="white"/>
<path d="M112.478 24.9437V19.6766H115.04V17.2723H112.478V13.5594H109.501V17.2723H106.121H103.236H103.144V23.6353C103.144 25.2345 102.08 26.5429 100.782 26.5429H100.604C99.5181 26.5429 98.9013 25.7378 98.9013 24.2617V17.2723H95.9258V24.5971C95.9258 25.9278 96.2491 26.9792 96.8977 27.7619C97.5369 28.556 98.5106 28.9473 99.7965 28.9473C101.219 28.9473 102.439 28.2204 103.144 27.0463V28.7237H106.121V19.6766H109.501V25.749C109.501 27.6837 110.542 28.7237 112.478 28.7237H115.388V26.2075H113.743C112.691 26.2075 112.478 25.995 112.478 24.9437Z" fill="white"/>
<path d="M123.123 24.0492C123.123 25.4917 121.925 26.5431 120.572 26.5431H120.393C119.576 26.5431 118.972 26.0845 118.972 25.38C118.972 24.9438 119.138 24.6195 119.475 24.3848C119.811 24.1498 120.202 24.0156 120.639 23.9821L123.123 23.7248V24.0492ZM126.011 21.164C126.011 18.5249 124.086 17.0488 121.198 17.0488C118.378 17.0488 116.509 18.6478 116.264 20.8173H119.251C119.318 20.1239 120.022 19.4531 121.097 19.4531H121.288C122.385 19.4531 123.123 20.247 123.123 21.2758V21.5554L120.235 21.8128C119.006 21.9132 117.998 22.2713 117.213 22.8974C116.43 23.5236 116.04 24.4182 116.04 25.5813C116.006 27.5942 117.74 28.9697 119.8 28.9473C121.265 28.9473 122.475 28.3213 123.19 27.3258C123.213 27.9296 123.258 28.3995 123.325 28.7237H126.123C126.044 28.187 126.011 27.3482 126.011 26.2075V21.164Z" fill="white"/>
<path d="M133.846 26.543H133.666C132.302 26.5766 131.025 25.1005 131.048 22.9979C131.025 20.8956 132.302 19.4193 133.666 19.4529H133.846C135.345 19.4529 136.464 20.8284 136.464 22.9755C136.464 25.1227 135.333 26.543 133.846 26.543ZM134.35 17.0486C132.816 17.0486 131.541 17.9208 131.048 18.7595V12.6873H128.07V28.7235H131.048V27.2362C131.541 28.0751 132.816 28.9473 134.35 28.9473C137.561 29.0031 139.475 26.1291 139.441 22.9979C139.475 19.8666 137.561 16.9926 134.35 17.0486Z" fill="white"/>
<path d="M143.909 12.6874H140.932V28.7237H143.909V12.6874Z" fill="white"/>
<path d="M148.318 21.6448C148.385 20.2916 149.427 19.453 150.681 19.453H150.858C152.112 19.453 153.153 20.2916 153.221 21.6448H148.318ZM150.883 17.0485C147.524 17.0039 145.397 19.5759 145.431 22.9981C145.374 26.6548 148.006 28.9921 150.883 28.9474C153.69 28.9474 155.505 27.3816 156.063 25.1004H153.109C152.895 25.9391 152.168 26.5431 151.094 26.5431H150.903C149.662 26.5431 148.43 25.4694 148.318 23.9375H156.063C156.097 23.4454 156.108 23.0873 156.108 22.8638C156.142 19.5201 154.228 17.0151 150.883 17.0485Z" fill="white"/>
<path d="M167.426 28.781L163.763 23.2685L160.032 28.781H156.621L162.062 20.7258L156.961 13.0652H160.525L163.86 18.0736L167.25 13.0652H170.661L165.561 20.6162L171.001 28.781H167.426Z" fill="white"/>
</svg>
