<svg width="123" height="30" viewBox="0 0 123 30" fill="none" xmlns="http://www.w3.org/2000/svg">
<g clip-path="url(#clip0_463_746)">
<path d="M46.2878 12.1949C46.2878 13.2173 46.0485 14.1518 45.5699 14.9985C45.1072 15.8292 44.3974 16.5001 43.4402 17.0113C42.499 17.5065 41.3423 17.7542 39.9703 17.7542H37.6492V23.4572H32.959V6.56363H39.9703C41.3263 6.56363 42.475 6.80325 43.4163 7.28251C44.3735 7.76178 45.0914 8.42471 45.5699 9.27138C46.0485 10.1181 46.2878 11.0925 46.2878 12.1949ZM39.5157 14.016C40.8398 14.016 41.5019 13.409 41.5019 12.1949C41.5019 10.9647 40.8398 10.3497 39.5157 10.3497H37.6492V14.016H39.5157Z" fill="white"/>
<path d="M54.5378 23.625C52.5756 23.625 50.9643 23.1617 49.7039 22.2351C48.4437 21.2926 47.7657 19.9507 47.6699 18.2094H52.6713C52.7191 18.8005 52.8947 19.2318 53.1978 19.5035C53.5008 19.775 53.8918 19.9108 54.3703 19.9108C54.801 19.9108 55.152 19.8069 55.4233 19.5992C55.7103 19.3756 55.8539 19.072 55.8539 18.6887C55.8539 18.1935 55.6226 17.81 55.16 17.5385C54.6974 17.2668 53.9475 16.9633 52.9105 16.6278C51.8097 16.2605 50.9164 15.909 50.2304 15.5735C49.5604 15.222 48.9702 14.7188 48.4597 14.0639C47.9651 13.3929 47.7179 12.5222 47.7179 11.4519C47.7179 10.3656 47.989 9.43909 48.5314 8.67229C49.0738 7.88951 49.8237 7.2984 50.7809 6.89902C51.738 6.49964 52.8228 6.29996 54.0353 6.29996C55.9976 6.29996 57.561 6.76324 58.7256 7.68979C59.9061 8.60036 60.5363 9.88639 60.616 11.5478H55.5189C55.5031 11.0366 55.3435 10.6532 55.0404 10.3976C54.7532 10.142 54.3782 10.0142 53.9157 10.0142C53.5647 10.0142 53.2776 10.118 53.0542 10.3257C52.8307 10.5333 52.7191 10.8289 52.7191 11.2123C52.7191 11.5318 52.8388 11.8113 53.078 12.051C53.3333 12.2747 53.6445 12.4743 54.0113 12.6501C54.3782 12.8098 54.9207 13.0175 55.6386 13.273C56.7074 13.6405 57.5849 14.0079 58.2709 14.3753C58.9728 14.7268 59.571 15.2301 60.0657 15.885C60.5762 16.524 60.8314 17.3387 60.8314 18.3292C60.8314 19.3356 60.5762 20.2382 60.0657 21.037C59.571 21.8357 58.8452 22.4668 57.888 22.93C56.9468 23.3933 55.8301 23.625 54.5378 23.625Z" fill="white"/>
<path d="M75.7201 6.56363V10.3018H71.2213V23.4572H66.531V10.3018H62.0801V6.56363H75.7201Z" fill="white"/>
<path d="M88.128 20.7016H82.1457L81.2363 23.4572H76.3066L82.4566 6.56363H87.865L93.9911 23.4572H89.0374L88.128 20.7016ZM86.9557 17.1072L85.1369 11.6437L83.342 17.1072H86.9557Z" fill="white"/>
<path d="M105.498 23.4572L100.21 16.0528V23.4572H95.5195V6.56363H100.21V13.8482L105.45 6.56363H110.859L104.661 14.7588L111.169 23.4572H105.498Z" fill="white"/>
<path d="M117.573 10.3257V13.0815H122.957V16.652H117.573V19.6952H123.674V23.4572H112.883V6.56363H123.674V10.3257H117.573Z" fill="white"/>
<path d="M14.9817 30C23.256 30 29.9635 23.2843 29.9635 15C29.9635 6.71573 23.256 0 14.9817 0C6.70755 0 0 6.71573 0 15C0 23.2843 6.70755 30 14.9817 30Z" fill="white"/>
<path d="M21.499 4.64975H8.46484V7.19974H21.499V4.64975Z" fill="#E50913"/>
<path d="M15.1567 25.425C13.9451 25.425 12.8594 25.2242 11.8995 24.8226C10.9396 24.4211 10.1686 23.8266 9.58641 23.0396C9.01987 22.2524 8.72092 21.3046 8.68945 20.1962H12.9853C13.0482 20.8228 13.2606 21.3046 13.6226 21.642C13.9845 21.9632 14.4566 22.1239 15.0387 22.1239C15.6367 22.1239 16.1088 21.9874 16.4549 21.7142C16.801 21.4251 16.9742 21.0315 16.9742 20.5335C16.9742 20.1158 16.8327 19.7705 16.5493 19.4974C16.2818 19.2244 15.9435 18.9994 15.5344 18.8227C15.141 18.6461 14.5746 18.4453 13.835 18.2203C12.7649 17.883 11.8916 17.5457 11.215 17.2084C10.5383 16.871 9.95616 16.373 9.46835 15.7144C8.98055 15.0557 8.73665 14.1964 8.73665 13.1361C8.73665 11.5618 9.29525 10.3329 10.4125 9.44944C11.5297 8.54981 12.9853 8.10004 14.7791 8.10004C16.6045 8.10004 18.0758 8.54981 19.1929 9.44944C20.3101 10.3329 20.9081 11.5699 20.9867 13.1602H16.6202C16.5887 12.614 16.392 12.1883 16.03 11.8831C15.6682 11.5618 15.204 11.4012 14.6375 11.4012C14.1496 11.4012 13.7563 11.5377 13.4573 11.8108C13.1584 12.0679 13.0088 12.4453 13.0088 12.9433C13.0088 13.4895 13.2606 13.9152 13.7641 14.2204C14.2677 14.5257 15.0544 14.8549 16.1245 15.2083C17.1945 15.5779 18.0599 15.9313 18.7209 16.2686C19.3975 16.6059 19.9797 17.0959 20.4675 17.7384C20.9553 18.381 21.1992 19.2083 21.1992 20.2204C21.1992 21.1842 20.9553 22.0596 20.4675 22.8467C19.9954 23.6339 19.303 24.2604 18.3904 24.7262C17.4778 25.1921 16.3999 25.425 15.1567 25.425Z" fill="black"/>
</g>
<defs>
<clipPath id="clip0_463_746">
<rect width="123" height="30" fill="white"/>
</clipPath>
</defs>
</svg>
