<svg width="91" height="30" viewBox="0 0 91 30" fill="none" xmlns="http://www.w3.org/2000/svg">
<g clip-path="url(#clip0_453_651)">
<path d="M14.4515 21.8151C14.4654 21.8069 14.4739 21.7919 14.4738 21.7758L14.4556 15.5534L16.2725 14.599L16.3476 22.844L9.18329 26.9121L9.17773 24.9156L14.4515 21.8151Z" fill="white" stroke="white" stroke-width="0.1" stroke-miterlimit="10" stroke-linecap="round" stroke-linejoin="round"/>
<path d="M16.3617 14.5251C16.3616 14.5084 16.3523 14.4931 16.3375 14.4853L10.7773 11.5467L12.8502 10.3743L18.1256 13.6744L18.1545 23.6385L16.4375 22.8425L16.3617 14.5251Z" fill="white" stroke="white" stroke-width="0.1" stroke-miterlimit="10" stroke-linecap="round" stroke-linejoin="round"/>
<path d="M9.1103 2.22822L9.10156 0.0783691L18.1012 5.19686L18.1076 7.24611L9.1103 2.22822Z" fill="white" stroke="white" stroke-width="0.1" stroke-miterlimit="10" stroke-linecap="round" stroke-linejoin="round"/>
<path d="M1.6774 6.33092C1.66307 6.33893 1.65417 6.35403 1.65411 6.37043L1.6258 14.5442L0.0754796 15.6883L0.0449219 5.30058L9.00919 0.0789185L9.01794 2.22836L1.6774 6.33092Z" fill="white" stroke="white" stroke-width="0.1" stroke-miterlimit="10" stroke-linecap="round" stroke-linejoin="round"/>
<path d="M9.15949 27.0318L16.3944 22.9237L18.1028 23.7157L9.09143 29.0402L0.146327 23.9705L7.28104 19.7906C7.29517 19.7823 7.30375 19.767 7.30352 19.7507C7.3033 19.7344 7.2943 19.7194 7.27996 19.7115L5.38761 18.6717L0.115234 15.7739L1.67521 14.6227L10.7201 19.785L5.35693 22.8072L5.35669 22.8074L3.5364 23.819C3.52201 23.827 3.51306 23.8421 3.51302 23.8586C3.51299 23.8751 3.52186 23.8903 3.53622 23.8983L9.11472 27.0319C9.12864 27.0397 9.14566 27.0397 9.15949 27.0318Z" fill="white" stroke="white" stroke-width="0.1" stroke-miterlimit="10" stroke-linecap="round" stroke-linejoin="round"/>
<path d="M9.06488 2.30881L18.0605 7.32572L12.8296 10.2832L10.6609 11.5098C10.6464 11.518 10.6376 11.5334 10.6378 11.55C10.638 11.5666 10.6473 11.5818 10.662 11.5895L16.2193 14.5266L14.4103 15.4769L7.2696 11.4494L14.4083 7.2696C14.4223 7.2614 14.4309 7.24635 14.4308 7.23013C14.4307 7.2139 14.4219 7.19895 14.4078 7.19091L12.6884 6.21056L9.09325 4.1606C9.07926 4.15262 9.06209 4.15263 9.0481 4.16063L3.71503 7.21012L1.80273 6.36756L9.06488 2.30881Z" fill="white" stroke="white" stroke-width="0.1" stroke-miterlimit="10" stroke-linecap="round" stroke-linejoin="round"/>
<path d="M9.08635 24.9183L9.09191 26.9138L3.65234 23.8582L5.37987 22.8981L9.08635 24.9183Z" fill="white" stroke="white" stroke-width="0.1" stroke-miterlimit="10" stroke-linecap="round" stroke-linejoin="round"/>
<path d="M5.36558 18.763L7.16551 19.7521L0.100118 23.8914L0.09375 21.7405L5.36558 18.763Z" fill="white" stroke="white" stroke-width="0.1" stroke-miterlimit="10" stroke-linecap="round" stroke-linejoin="round"/>
<path d="M12.6656 6.30219L14.2944 7.23086L7.22461 11.3703L7.24524 9.32698L12.6656 6.30219Z" fill="white" stroke="white" stroke-width="0.1" stroke-miterlimit="10" stroke-linecap="round" stroke-linejoin="round"/>
<path d="M3.68924 13.6877C3.68929 13.7042 3.69829 13.7194 3.71277 13.7274L10.7593 17.6094L10.7657 19.702L1.7168 14.5374L1.74486 6.4368L3.67096 7.28544L3.68924 13.6877Z" fill="white" stroke="white" stroke-width="0.1" stroke-miterlimit="10" stroke-linecap="round" stroke-linejoin="round"/>
<path d="M31.791 22.99C30.5534 22.99 29.4978 22.7573 28.6242 22.2918C27.7506 21.8118 27.008 21.1573 26.3965 20.3282L27.7506 19.1936C28.2893 19.9064 28.8862 20.4518 29.5414 20.83C30.1966 21.1936 30.9683 21.3754 31.8565 21.3754C32.9485 21.3754 33.7784 21.1136 34.3462 20.59C34.9286 20.0664 35.2198 19.3682 35.2198 18.4954C35.2198 17.7682 35.0014 17.2082 34.5646 16.8154C34.1278 16.4227 33.4071 16.11 32.4025 15.8773L31.1576 15.5936C29.7598 15.2736 28.6897 14.7936 27.9471 14.1536C27.2191 13.4991 26.8551 12.5827 26.8551 11.4045C26.8551 10.7354 26.9789 10.1391 27.2264 9.61545C27.4739 9.09181 27.8161 8.65543 28.2529 8.30634C28.7042 7.95725 29.2357 7.69543 29.8472 7.52088C30.4733 7.33179 31.1576 7.23725 31.9002 7.23725C33.0504 7.23725 34.0332 7.44816 34.8486 7.86997C35.6785 8.29179 36.3774 8.90997 36.9452 9.72454L35.5693 10.7282C35.147 10.1464 34.6374 9.68817 34.0405 9.35363C33.4435 9.01907 32.701 8.85179 31.8128 8.85179C30.8373 8.85179 30.0656 9.0627 29.4978 9.48454C28.9445 9.89181 28.6678 10.51 28.6678 11.3391C28.6678 12.0664 28.9008 12.6191 29.3667 12.9973C29.8472 13.3609 30.5679 13.6518 31.5289 13.87L32.7738 14.1536C34.2734 14.4882 35.3582 14.9973 36.0279 15.6809C36.6977 16.3645 37.0326 17.2736 37.0326 18.4082C37.0326 19.1064 36.9088 19.7391 36.6613 20.3064C36.4283 20.8736 36.0862 21.3536 35.6348 21.7464C35.1834 22.1391 34.6302 22.4445 33.975 22.6627C33.3343 22.8809 32.6063 22.99 31.791 22.99ZM42.5594 22.7282C41.9478 22.7282 41.4819 22.5609 41.1616 22.2264C40.8558 21.8773 40.703 21.4264 40.703 20.8736V12.9973H38.8466V11.47H39.8949C40.2734 11.47 40.5282 11.3973 40.6593 11.2518C40.8049 11.0918 40.8777 10.8227 40.8777 10.4445V8.34998H42.4502V11.47H44.9181V12.9973H42.4502V21.2009H44.7434V22.7282H42.5594ZM55.96 22.7282C55.3048 22.7282 54.8316 22.5536 54.5404 22.2045C54.2638 21.8554 54.0891 21.4191 54.0163 20.8954H53.9071C53.6595 21.5936 53.2519 22.1173 52.684 22.4664C52.1162 22.8154 51.4391 22.99 50.6529 22.99C49.459 22.99 48.5271 22.6845 47.8574 22.0736C47.2022 21.4627 46.8746 20.6336 46.8746 19.5864C46.8746 18.5245 47.2604 17.71 48.0321 17.1427C48.8183 16.5754 50.0341 16.2918 51.6794 16.2918H53.9071V15.1791C53.9071 14.3791 53.6887 13.7682 53.2519 13.3464C52.8151 12.9245 52.1453 12.7136 51.2426 12.7136C50.5583 12.7136 49.9831 12.8664 49.5172 13.1718C49.0659 13.4773 48.6873 13.8845 48.3815 14.3936L47.3332 13.4118C47.639 12.8009 48.1267 12.2845 48.7965 11.8627C49.4663 11.4264 50.3107 11.2082 51.3299 11.2082C52.6986 11.2082 53.7615 11.5427 54.5186 12.2118C55.2757 12.8809 55.6543 13.8118 55.6543 15.0045V21.2009H56.9428V22.7282H55.96ZM50.9368 21.5064C51.3736 21.5064 51.774 21.4554 52.138 21.3536C52.502 21.2518 52.8151 21.1064 53.0771 20.9173C53.3392 20.7282 53.5431 20.51 53.6887 20.2627C53.8343 20.0154 53.9071 19.7464 53.9071 19.4554V17.6009H51.592C50.5874 17.6009 49.8521 17.7464 49.3862 18.0373C48.9348 18.3282 48.7091 18.75 48.7091 19.3027V19.7609C48.7091 20.3136 48.9057 20.7427 49.2988 21.0482C49.7065 21.3536 50.2525 21.5064 50.9368 21.5064ZM66.6874 20.8954H66.6C65.9157 22.2918 64.8164 22.99 63.3022 22.99C62.6033 22.99 61.9699 22.8518 61.4021 22.5754C60.8343 22.2991 60.3465 21.9064 59.9388 21.3973C59.5457 20.8882 59.2399 20.27 59.0215 19.5427C58.8177 18.8154 58.7158 18.0009 58.7158 17.0991C58.7158 16.1973 58.8177 15.3827 59.0215 14.6554C59.2399 13.9282 59.5457 13.31 59.9388 12.8009C60.3465 12.2918 60.8343 11.8991 61.4021 11.6227C61.9699 11.3464 62.6033 11.2082 63.3022 11.2082C64.0884 11.2082 64.7582 11.3827 65.3115 11.7318C65.8793 12.0664 66.3088 12.59 66.6 13.3027H66.6874V6.5827H68.4346V22.7282H66.6874V20.8954ZM63.7827 21.4191C64.1758 21.4191 64.5471 21.3682 64.8965 21.2664C65.2605 21.1645 65.5735 21.0191 65.8356 20.83C66.0977 20.6264 66.3015 20.3864 66.4471 20.11C66.6073 19.8191 66.6874 19.4918 66.6874 19.1282V14.9391C66.6874 14.6336 66.6073 14.35 66.4471 14.0882C66.3015 13.8118 66.0977 13.5791 65.8356 13.39C65.5735 13.2009 65.2605 13.0554 64.8965 12.9536C64.5471 12.8373 64.1758 12.7791 63.7827 12.7791C62.7926 12.7791 62.0136 13.0918 61.4458 13.7173C60.8779 14.3282 60.594 15.1354 60.594 16.1391V18.0591C60.594 19.0627 60.8779 19.8773 61.4458 20.5027C62.0136 21.1136 62.7926 21.4191 63.7827 21.4191ZM76.4297 22.99C75.6581 22.99 74.9592 22.8518 74.3331 22.5754C73.7216 22.2991 73.1901 21.9064 72.7388 21.3973C72.302 20.8736 71.9598 20.2554 71.7123 19.5427C71.4793 18.8154 71.3629 18.0009 71.3629 17.0991C71.3629 16.2118 71.4793 15.4045 71.7123 14.6773C71.9598 13.95 72.302 13.3318 72.7388 12.8227C73.1901 12.2991 73.7216 11.8991 74.3331 11.6227C74.9592 11.3464 75.6581 11.2082 76.4297 11.2082C77.1869 11.2082 77.8639 11.3464 78.4609 11.6227C79.0578 11.8991 79.5674 12.2845 79.9897 12.7791C80.4119 13.2591 80.7322 13.8336 80.9506 14.5027C81.1836 15.1718 81.3001 15.9064 81.3001 16.7064V17.5354H73.1974V18.0591C73.1974 18.5391 73.2702 18.99 73.4158 19.4118C73.576 19.8191 73.7944 20.1754 74.071 20.4809C74.3622 20.7864 74.7117 21.0264 75.1193 21.2009C75.5416 21.3754 76.0148 21.4627 76.5389 21.4627C77.2524 21.4627 77.8712 21.2954 78.3953 20.9609C78.9341 20.6264 79.349 20.1464 79.6402 19.5209L80.8851 20.4154C80.5211 21.1864 79.9533 21.8118 79.1816 22.2918C78.4099 22.7573 77.4926 22.99 76.4297 22.99ZM76.4297 12.67C75.9493 12.67 75.5125 12.7573 75.1193 12.9318C74.7262 13.0918 74.3841 13.3245 74.0929 13.63C73.8162 13.9354 73.5978 14.2991 73.4377 14.7209C73.2775 15.1282 73.1974 15.5791 73.1974 16.0736V16.2264H79.4218V15.9864C79.4218 14.9827 79.1452 14.1827 78.5919 13.5864C78.0532 12.9754 77.3325 12.67 76.4297 12.67ZM84.2229 22.7282V11.47H85.9701V13.5427H86.0793C86.2831 13.0045 86.6471 12.5245 87.1713 12.1027C87.6954 11.6809 88.4162 11.47 89.3334 11.47H90.0105V13.2154H88.984C88.0376 13.2154 87.295 13.3973 86.7563 13.7609C86.2322 14.11 85.9701 14.5536 85.9701 15.0918V22.7282H84.2229Z" fill="white"/>
</g>
<defs>
<clipPath id="clip0_453_651">
<rect width="91" height="30" fill="white"/>
</clipPath>
</defs>
</svg>
