<svg width="139" height="30" viewBox="0 0 139 30" fill="none" xmlns="http://www.w3.org/2000/svg">
<g clip-path="url(#clip0_452_359)">
<path d="M12.9871 25.9925L21.5175 0.025H25.8002L15.2362 29.9813H10.6078L0 0.025H4.35784L12.9871 25.9925ZM43.8213 16.2738V26.585H60.579V29.98H39.7991V0.02375H60.2108V3.4175H43.8213V12.8888H58.4201V16.2738H43.8213ZM76.7004 3.65H80.3069V26.3937H76.7004V3.65ZM94.7366 0V3.65H80.3057V0H94.7379H94.7366ZM80.3057 30V26.3937H94.7379V30H80.3057ZM98.3444 26.3937H94.7379V19.1812H87.5224V15.5688H98.3444V26.3937ZM98.3444 3.65V7.255H94.7379V3.65H98.3444ZM138.637 29.98H134.437L132.229 23.9475H117.164L114.957 29.98H110.851L122.479 0.02375H127.02L138.637 29.98ZM124.634 3.63L118.437 20.56H130.962L124.721 3.62875H124.633L124.634 3.63Z" fill="white"/>
</g>
<defs>
<clipPath id="clip0_452_359">
<rect width="139" height="30" fill="white"/>
</clipPath>
</defs>
</svg>
