<svg width="106" height="30" viewBox="0 0 106 30" fill="none" xmlns="http://www.w3.org/2000/svg">
<g clip-path="url(#clip0_452_242)">
<path d="M16.3863 29.9382C15.835 29.9542 15.2984 29.7582 14.8866 29.3904C14.4747 29.0224 14.2188 28.5106 14.1711 27.9595L13.9218 26.0001C11.5476 25.3215 10.1587 23.5596 9.7978 20.7619L7.66098 4.25243C7.2026 4.17845 6.73866 4.14499 6.27447 4.15243C5.58736 4.14679 4.90274 4.23571 4.23974 4.41671V29.4548H0.046875V9.32864C0.046875 6.59768 1.2696 4.66909 3.49662 3.86671V2.56909C3.49662 1.0691 4.40594 0.0619522 5.75687 0.0619522C7.1078 0.0619522 7.95538 0.904806 8.17385 2.44291L8.34003 3.64529C10.7783 4.32862 12.2029 6.29288 12.6255 9.48098L14.6009 25.3953C15.781 25.6239 16.9939 25.6239 18.174 25.3953L20.1494 9.48339C20.5625 6.29288 22.0037 4.32862 24.4348 3.63814L24.601 2.43576C24.8195 0.904812 25.6789 0.0548096 27.018 0.0548096C28.3571 0.0548096 29.2783 1.06195 29.2783 2.56195V3.85957C31.5053 4.66195 32.728 6.59054 32.728 9.3215V29.4477H28.5304V4.41433C27.8674 4.23333 27.1828 4.14441 26.4957 4.15004C26.0315 4.14261 25.5675 4.17607 25.1091 4.25005L22.9723 20.7619C22.6186 23.5096 21.1964 25.3143 18.8483 26.0001L18.6133 27.9619C18.5766 28.5192 18.3221 29.0394 17.9051 29.4094C17.4881 29.7795 16.9422 29.9695 16.3863 29.9382ZM14.6982 26.1905L14.9143 27.8786C14.9369 28.2488 15.1042 28.5951 15.3797 28.8424C15.6552 29.0898 16.0169 29.2183 16.3863 29.2C16.57 29.2132 16.7546 29.1894 16.929 29.1298C17.1034 29.0702 17.264 28.9761 17.4015 28.8531C17.539 28.7301 17.6505 28.5807 17.7294 28.4137C17.8082 28.2468 17.8528 28.0656 17.8606 27.881L18.0767 26.1905C16.958 26.3746 15.8169 26.3746 14.6982 26.1905ZM29.2783 28.7167H31.9801V9.32864C31.9801 7.01432 31.0494 5.41671 29.2783 4.67147V28.7167ZM0.787629 28.7167H3.49662V4.67147C1.72783 5.41671 0.806626 7.01432 0.806626 9.32864L0.787629 28.7167ZM8.44687 4.45719L10.5409 20.6643C10.8401 23.0095 11.9441 24.5262 13.8197 25.1881L11.8847 9.57386C11.5286 6.82148 10.4009 5.14052 8.44687 4.45719ZM24.328 4.45719C22.374 5.14052 21.2416 6.82148 20.8901 9.57626L18.9552 25.1786C20.8332 24.5167 21.9348 23.0001 22.2339 20.6548L24.328 4.45719ZM4.24449 3.62862C4.91049 3.46621 5.59381 3.38625 6.2792 3.39052C6.70781 3.38599 7.13619 3.41144 7.56126 3.46672L7.43305 2.531C7.26925 1.38338 6.70416 0.802428 5.75687 0.802428C4.80956 0.802428 4.24449 1.47624 4.24449 2.55957V3.62862ZM26.4957 3.39052C27.1811 3.38625 27.8644 3.46621 28.5304 3.62862V2.56909C28.5304 1.48576 27.9511 0.81195 27.018 0.81195C26.0849 0.81195 25.5056 1.39291 25.3418 2.54052L25.2136 3.47624C25.6387 3.42097 26.0671 3.39551 26.4957 3.40004V3.39052Z" fill="white"/>
<path d="M44.3029 29.4547H40.1836V0.545166H44.3029V29.4547ZM40.9315 28.7047H43.555V1.29517H40.9315V28.7047Z" fill="white"/>
<path d="M71.0275 29.938C69.2399 29.938 68.8315 28.3022 68.6985 27.7642L68.3901 26.3927C65.7144 25.9165 64.0806 24.1856 63.4039 21.1165L59.5269 4.23081C59.0835 4.17513 58.637 4.14809 58.1902 4.14986C57.4482 4.1378 56.7086 4.23814 55.9964 4.44748V29.4475H51.7988V9.2094C51.7988 6.59034 52.9859 4.76891 55.2486 3.91653V2.56891C55.2486 1.06891 56.1555 0.0617676 57.5064 0.0617676C58.6722 0.0617676 59.5293 0.804622 59.7999 2.04748L60.1443 3.57129C62.7559 4.04748 64.3226 5.72843 65.0514 8.84508L69.0045 25.7332C69.4495 25.7888 69.8981 25.8158 70.346 25.8142C71.085 25.8199 71.8216 25.7294 72.5379 25.5451V0.545102H76.7354V21.4285C76.7354 23.5713 75.4837 25.2523 73.2853 26.0785V27.3808C73.2853 28.9618 72.4211 29.938 71.0275 29.938ZM69.1854 26.5118L69.4226 27.5903C69.7052 28.7237 70.1705 29.188 71.0251 29.188C71.9749 29.188 72.5355 28.5332 72.5355 27.3904V26.3141C71.8162 26.479 71.0808 26.5589 70.3436 26.5522C69.9567 26.5532 69.5705 26.5341 69.1854 26.4951V26.507V26.5118ZM52.5467 28.7046H55.2486V4.72129C53.4536 5.49986 52.5467 7.00698 52.5467 9.207V28.7046ZM60.3269 4.37129L64.1256 20.9498C64.7148 23.6046 66.0252 25.0927 68.1997 25.5904L64.325 9.01176C63.6938 6.3189 62.4517 4.86415 60.3269 4.37129ZM73.2853 1.2951V25.2808C75.0328 24.538 75.9874 23.188 75.9874 21.4379V1.2951H73.2853ZM55.9964 3.657C56.7128 3.47179 57.4504 3.38213 58.1902 3.39034C58.5771 3.38943 58.9638 3.4085 59.3488 3.44748V3.43558L59.0687 2.19986C58.9547 1.67606 58.5938 0.802246 57.5064 0.802246C56.4191 0.802246 55.9964 1.70939 55.9964 2.55939V3.657Z" fill="white"/>
<path d="M105.557 29.4546H101.165L98.9992 20.845H86.8241L84.6994 29.4546H80.3066L85.972 8.54504C86.6271 6.15692 88.1249 4.52361 90.3144 3.80932L90.706 2.16646C90.9432 1.26171 91.4181 0.0688477 92.9164 0.0688477C94.4142 0.0688477 94.8915 1.25932 95.1245 2.15932L95.5114 3.80932C97.6954 4.52361 99.1938 6.16406 99.8514 8.54978L105.557 29.4546ZM101.746 28.7046H104.576L99.1297 8.74268C98.5907 6.78314 97.4223 5.39266 95.7323 4.69504L99.0986 18.0307H86.7768L90.1006 4.68314C88.4076 5.39742 87.2398 6.78074 86.7008 8.73074L81.2924 28.7046H84.122L86.2474 20.095H99.5735L101.746 28.7046ZM87.738 17.276H98.1326L94.8939 4.39504C93.5962 4.06407 92.2367 4.06407 90.9384 4.39504L87.738 17.276ZM91.145 3.55218V3.58075C92.3146 3.34026 93.5207 3.34026 94.6897 3.58075V3.5498L94.4004 2.32837C94.1178 1.23552 93.7022 0.806943 92.9188 0.806943C92.1355 0.806943 91.7199 1.23552 91.4348 2.33551L91.145 3.5498V3.55218Z" fill="white"/>
</g>
<defs>
<clipPath id="clip0_452_242">
<rect width="106" height="30" fill="white"/>
</clipPath>
</defs>
</svg>
