<svg width="144" height="30" viewBox="0 0 144 30" fill="none" xmlns="http://www.w3.org/2000/svg">
<g clip-path="url(#clip0_453_423)">
<path d="M6.19587 24.1639H0V0.899414H4.7768C8.23449 0.899414 9.69351 1.15923 11.0726 2.03864C12.7515 3.11792 13.7109 4.93674 13.7109 7.11529C13.7109 9.29384 12.9913 10.513 11.1326 11.4923C14.0906 12.7115 15.1099 14.4904 15.1099 17.2486C15.1099 21.4857 12.1918 24.1639 6.19587 24.1639ZM6.07593 5.11662H4.31709V9.87344H5.6962C8.31445 9.87344 9.41366 9.15396 9.41366 7.47505C9.41366 5.87612 8.31443 5.11662 6.07593 5.11662ZM6.35577 14.0906H4.31709V20.0466H6.4557C9.47366 20.0466 10.7728 19.1673 10.7728 17.1486C10.7728 15.07 9.35374 14.0906 6.35577 14.0906Z" fill="#D85111"/>
<path d="M16.7695 24.1639V6.71553H20.9667V24.1639H16.7695ZM16.8095 4.1972V0H21.0067V4.1972H16.8095Z" fill="#D85111"/>
<path d="M32.0989 24.5836C26.9423 24.5836 22.7852 20.5263 22.7852 15.4497C22.7852 10.3131 26.8225 6.3158 31.979 6.3158C35.9564 6.3158 39.4141 8.55429 40.7732 12.5516H36.0563C35.1968 10.9527 33.8777 10.1532 31.9989 10.1532C29.1009 10.1532 27.0223 12.3518 27.0223 15.4097C27.0223 18.4676 29.2008 20.7261 32.0989 20.7261C33.8378 20.7261 35.037 20.0266 36.0763 18.4277H40.7931C39.314 22.3451 36.1761 24.5836 32.0989 24.5836Z" fill="#D85111"/>
<path d="M51.2265 24.5836C46.1299 24.5836 41.9727 20.4863 41.9727 15.4497C41.9727 10.433 46.1299 6.3158 51.2065 6.3158C56.463 6.3158 60.5203 10.3731 60.5203 15.5696C60.5003 20.4864 56.2831 24.5836 51.2265 24.5836ZM51.2265 10.1532C48.4883 10.1532 46.1898 12.5116 46.1898 15.3897C46.1898 18.3878 48.4284 20.7462 51.2665 20.7462C54.0447 20.7462 56.3031 18.3878 56.3031 15.4497C56.2831 12.5516 54.0246 10.1532 51.2265 10.1532Z" fill="#D85111"/>
<path d="M73.4706 24.1639V15.6296C73.4706 10.9726 72.2115 10.1532 70.1329 10.1532C68.8137 10.1532 67.7145 10.7128 67.0549 11.7522C66.5153 12.6116 66.3554 13.6109 66.3554 15.9494V24.1639H62.1582V6.71552H66.0356V8.39438C67.5746 6.91538 68.9736 6.3158 70.9523 6.3158C73.3707 6.3158 75.2694 7.19518 76.4087 8.83405C77.3481 10.1932 77.6678 11.6922 77.6678 14.8101V24.1639H73.4706Z" fill="#D85111"/>
<path d="M88.5797 24.5836C83.4834 24.5836 79.3262 20.4863 79.3262 15.4497C79.3262 10.433 83.4834 6.3158 88.56 6.3158C93.8169 6.3158 97.8737 10.3731 97.8737 15.5696C97.854 20.4864 93.6369 24.5836 88.5797 24.5836ZM88.5797 10.1532C85.842 10.1532 83.5434 12.5116 83.5434 15.3897C83.5434 18.3878 85.782 20.7462 88.62 20.7462C91.398 20.7462 93.6566 18.3878 93.6566 15.4497C93.6369 12.5516 91.3783 10.1532 88.5797 10.1532Z" fill="#D85111"/>
<path d="M121.499 24.1639V14.5903C121.499 11.0926 120.18 10.1532 118.222 10.1532C115.883 10.1532 114.704 11.4124 114.704 15.5696V24.1639H110.507V14.5903C110.507 11.1525 109.307 10.1532 107.109 10.1532C104.69 10.1532 103.711 11.4524 103.711 15.5696V24.1639H99.5137V6.71552H103.351V8.35442C104.571 6.87542 105.83 6.3158 107.888 6.3158C110.286 6.3158 111.826 7.13522 113.025 9.03393C114.444 7.13522 116.183 6.3158 118.621 6.3158C123.218 6.3158 125.676 8.87407 125.676 14.0906V24.1639H121.499Z" fill="#D85111"/>
<path d="M133.311 30H128.814L132.091 22.545L125.695 6.7355H130.472L134.35 18.048L138.567 6.7355H143.384L133.311 30Z" fill="#D85111"/>
</g>
<defs>
<clipPath id="clip0_453_423">
<rect width="144" height="30" fill="white"/>
</clipPath>
</defs>
</svg>
