<svg width="85" height="45" viewBox="0 0 85 45" fill="none" xmlns="http://www.w3.org/2000/svg">
<g clip-path="url(#clip0_453_449)">
<path d="M29.8848 41.9823L40.05 19.8495H44.8749L55.0402 41.9823H49.4936L47.3905 37.3137H37.5551L35.4519 41.9823H29.8848ZM42.4625 26.3625L39.4521 33.0101H45.4522L42.4625 26.3625Z" fill="#DAA809"/>
<path d="M57.5352 41.9823V19.8495H66.8962C69.0819 19.8495 70.8552 20.5028 72.2161 21.7899C73.5769 23.0771 74.2573 24.6526 74.2573 26.5354C74.2573 29.3212 72.7109 31.2233 69.5974 32.2416L77.9894 42.0015H71.5975L63.659 32.8564H62.8137V42.0015H57.5352V41.9823ZM62.855 28.6296H66.2777C67.0818 28.6296 67.7417 28.4375 68.2365 28.034C68.7314 27.6305 68.9788 27.131 68.9788 26.4971C68.9788 25.8246 68.7314 25.3058 68.2365 24.9408C67.7211 24.5757 67.0613 24.4028 66.2777 24.4028H62.855V28.6296Z" fill="#DAA809"/>
<path d="M79.6797 41.9823V19.8495H84.9994V41.9823H79.6797Z" fill="#DAA809"/>
<path d="M29.8837 26.3164V39.8698C28.632 41.2639 26.9891 42.2708 24.8768 42.9679C22.8428 43.6649 20.5739 44.0521 18.0705 44.0521C13.6113 44.0521 9.9343 42.658 6.96144 39.7924C4.69268 37.6238 3.28449 35.1455 2.73686 32.2025H0.9375V29.879H2.50216C2.50216 29.7241 2.50216 29.4917 2.50216 29.3369C2.50216 29.1045 2.50216 28.8721 2.50216 28.5624H0.9375V26.239H2.8151C3.36272 23.4508 4.69268 20.9724 6.80498 18.8812C7.90024 17.7196 9.23021 16.8676 10.5602 16.1706C10.169 15.6284 9.9343 14.9314 9.77783 14.2344C9.6996 13.9245 9.62137 13.5373 9.62137 13.15C9.62137 12.8403 9.62137 12.608 9.62137 12.2981C9.62137 11.9883 9.62137 11.7559 9.6996 11.5236C9.6996 11.3687 9.85607 11.2139 10.0125 11.1364C10.169 11.0589 10.3255 11.1364 10.4819 11.2139C10.7166 11.4462 10.9513 11.6785 11.2643 11.8335C11.2643 11.9883 11.3425 12.0658 11.4207 12.1432C11.6554 12.2207 11.8119 12.2207 11.9684 12.0658C12.0466 11.9883 12.0466 11.9109 12.0466 11.9109C12.0466 11.6785 12.0466 11.4462 12.0466 11.2139V10.9815C12.0466 10.5942 12.0466 10.2845 12.1248 9.89721C12.2031 8.96782 12.3595 8.03844 12.6725 7.10905C12.8289 6.25711 13.1418 5.48262 13.6113 4.70814C14.0025 4.166 14.4718 3.54641 15.0977 3.15916C15.6453 2.69447 16.3494 2.30722 17.0535 2.07488C17.21 2.07488 17.3664 1.99743 17.5229 1.91998C17.6011 1.91998 17.7576 1.91998 17.8359 1.99743C17.9141 2.07488 17.9141 2.15233 17.9141 2.22977C17.8359 2.46213 17.8359 2.61703 17.7576 2.77192C17.6794 3.00427 17.6794 3.31406 17.6011 3.54641C17.6011 3.77876 17.5229 4.0111 17.5229 4.32089C17.5229 4.55325 17.5229 4.78559 17.5229 5.01793C17.5229 5.56007 17.6011 6.17967 17.8359 6.64435C17.9141 7.0316 18.1488 7.3414 18.3052 7.65119C18.4617 7.88354 18.6964 8.03844 19.0093 8.19333C19.2441 8.42568 19.557 8.50313 19.8699 8.50313C20.1828 8.50313 20.4175 8.42568 20.6523 8.27078C20.9652 8.11589 21.1998 7.88354 21.4346 7.57374C21.5128 7.49629 21.591 7.3414 21.6693 7.26395C21.6693 7.26395 21.6693 7.1865 21.7475 7.1865C21.8257 7.0316 22.1387 7.0316 22.2169 7.1865C22.2951 7.41884 22.3734 7.57374 22.4516 7.80609C22.6862 8.27078 22.921 8.81293 22.9992 9.35507C22.9992 9.50996 23.0775 9.74231 23.0775 9.97466C23.0775 10.207 23.0775 10.3619 23.0775 10.5168C23.0775 11.1364 22.9992 11.7559 22.7646 12.2981C22.7646 12.3755 22.6862 12.453 22.7646 12.608C22.8428 12.9177 23.0775 12.9951 23.3121 12.9177C23.3903 12.9177 23.3903 12.8403 23.4686 12.8403C23.6251 12.7628 23.8598 12.608 24.0162 12.453C24.0162 12.453 24.0944 12.3755 24.1727 12.3755C24.251 12.3755 24.3292 12.453 24.3292 12.5304V12.9177C24.3292 13.0726 24.3292 13.2275 24.3292 13.305C24.3292 13.6147 24.251 13.8471 24.251 14.0795C24.0944 14.5441 23.8598 15.0863 23.6251 15.6284C25.8939 16.4029 27.7714 17.7196 29.4144 19.5008L24.8768 23.838C22.9992 21.8243 20.574 20.74 17.6794 20.74C15.1759 20.74 13.0636 21.592 11.4207 23.2184C10.5602 24.2253 9.85607 25.1546 9.4649 26.3164H11.8902V28.6398H8.9955C8.9955 28.8721 8.9955 29.1045 8.9955 29.4143C8.9955 29.5692 8.9955 29.8015 8.9955 29.9565H11.8902V32.2799H9.38667C9.77783 33.4416 10.4819 34.5259 11.4207 35.4553C13.0636 37.0818 15.2541 37.8563 17.9923 37.8563C20.4957 37.8563 22.3734 37.3915 23.5469 36.4622V32.2799H17.9923V26.3164H29.8837Z" fill="#3A2700"/>
<path d="M29.2607 24.9998V38.5534C28.009 39.9475 26.3661 40.9543 24.2538 41.6513C22.2197 42.4258 19.951 42.7357 17.4475 42.7357C12.9882 42.7357 9.31126 41.3416 6.3384 38.476C4.06964 36.3848 2.66145 33.829 2.11381 30.8859H0.314453V28.5625H1.87912C1.87912 28.4076 1.87912 28.1753 1.87912 28.0203C1.87912 27.788 1.87912 27.5557 1.87912 27.2459H0.314453V24.9224H2.19204C2.66145 22.2117 3.99141 19.7334 6.1037 17.6422C7.2772 16.4805 8.52892 15.5511 9.93713 14.9315C9.62419 14.3119 9.31126 13.6924 9.15479 12.9954C9.07656 12.6081 8.99833 12.2209 8.92008 11.8336C8.92008 11.5238 8.92008 11.2914 8.92008 10.9817C8.92008 10.6719 8.92008 10.4395 8.99833 10.2072C8.99833 10.0523 9.15479 9.89737 9.31126 9.81991C9.46772 9.74247 9.62419 9.81991 9.70242 9.89737C10.0154 10.1297 10.2501 10.3621 10.4848 10.5944C10.563 10.6719 10.7194 10.7493 10.7976 10.8267C10.9542 10.9042 11.1889 10.9042 11.2671 10.7493C11.3453 10.6719 11.3453 10.5944 11.3453 10.517C11.3453 10.2846 11.3453 10.0523 11.3453 9.81991V9.66502C11.3453 9.27778 11.3453 8.96798 11.4235 8.58073C11.5017 7.65135 11.6583 6.72197 11.9712 5.79258C12.2058 4.94065 12.5971 4.16616 13.0665 3.39168C13.4576 2.84953 13.927 2.22994 14.5529 1.84269C15.0222 1.37801 15.7263 1.06821 16.4304 0.758414C16.5869 0.758414 16.7434 0.680964 16.8999 0.603516C16.9781 0.603516 17.1345 0.603515 17.2128 0.680964C17.291 0.758413 17.291 0.835862 17.291 0.913311C17.2128 1.14566 17.2128 1.30055 17.1346 1.5329C17.0563 1.76525 17.0563 2.07504 16.9781 2.30739C16.9781 2.53974 16.8999 2.77208 16.8999 3.08187C16.8999 3.31422 16.8999 3.54657 16.8999 3.77892C16.8999 4.32105 16.9781 4.94065 17.2128 5.40533C17.291 5.79258 17.5258 6.10238 17.6822 6.41217C17.9169 6.64451 18.0733 6.79942 18.3863 7.03176C18.621 7.18666 18.934 7.26411 19.2469 7.18666C19.5597 7.18666 19.7945 7.10921 20.0292 6.95431C20.3422 6.79942 20.5768 6.56706 20.7333 6.25727C20.8115 6.17982 20.8897 6.02493 20.9679 5.94748C20.9679 5.94748 20.9679 5.87003 21.0463 5.87003C21.1245 5.71514 21.4374 5.71514 21.5156 5.87003C21.5938 6.02493 21.7503 6.25727 21.8286 6.41217C22.0633 6.87687 22.2979 7.419 22.3761 7.96115C22.3761 8.11605 22.4544 8.34839 22.4544 8.58073C22.4544 8.81308 22.4544 8.96798 22.4544 9.12288C22.4544 9.74246 22.3761 10.3621 22.1415 10.9042C22.1415 10.9817 22.0633 11.0591 22.1415 11.214C22.2197 11.4464 22.4544 11.6013 22.7674 11.5238C22.8456 11.5238 22.8456 11.4463 22.9238 11.4463C23.0802 11.3689 23.315 11.214 23.4715 11.0591C23.4715 11.0591 23.5497 10.9817 23.6279 10.9817C23.7061 10.9817 23.7843 11.0591 23.7843 11.1365V11.5238C23.7843 11.6787 23.7843 11.8336 23.7843 11.911C23.7843 12.2209 23.7061 12.4532 23.7061 12.6855C23.4715 13.2277 23.2368 13.7698 23.002 14.3119C25.2708 15.0865 27.1484 16.403 28.7913 18.1844L24.2538 22.599C22.3761 20.5853 19.951 19.5011 17.0563 19.5011C14.5529 19.5011 12.4406 20.353 10.7976 21.9794C9.85888 22.9087 9.23303 23.9156 8.84185 24.9998H11.2671V27.3233H8.37246C8.37246 27.5557 8.37246 27.788 8.37246 28.0979C8.37246 28.2527 8.37246 28.4851 8.37246 28.6399H11.2671V30.9634H8.76362C9.15479 32.2026 9.85888 33.2869 10.7976 34.2163C12.4406 35.8427 14.6311 36.6172 17.3692 36.6172C19.8727 36.6172 21.7503 36.1525 22.9238 35.2231V30.9634H17.3692V24.9998H29.2607Z" fill="url(#paint0_linear_453_449)"/>
<path d="M17.446 43.1227C12.9085 43.1227 9.07503 41.6512 6.10218 38.7856C3.83343 36.6945 2.42522 34.1386 1.79936 31.273H0V28.2525H1.56466C1.56466 28.1751 1.56466 28.0977 1.56466 28.0202C1.56466 27.8653 1.56466 27.7878 1.56466 27.6329H0V24.6899H1.8776C2.42522 21.9017 3.83342 19.5008 5.86748 17.4097C6.96274 16.3254 8.13623 15.396 9.4662 14.699C9.2315 14.2344 8.9968 13.6922 8.84033 13.0726C8.7621 12.6853 8.68387 12.2981 8.60564 11.9108C8.60564 11.6011 8.60564 11.2912 8.60564 10.9815C8.60564 10.6717 8.60564 10.4393 8.68387 10.1295C8.7621 9.81973 8.91857 9.58739 9.23149 9.50994C9.54444 9.43249 9.85736 9.50994 10.0921 9.74228C10.2485 9.89718 10.4832 10.1295 10.7179 10.2844C10.7962 10.3619 10.9526 10.4393 11.0308 10.5168C11.0308 10.3619 11.0308 10.2844 11.0308 10.207C11.0308 10.0521 11.0308 9.97464 11.0308 9.81973V9.66483C11.0308 9.43249 11.0308 9.27759 11.0308 9.1227C11.0308 8.9678 11.0308 8.73545 11.0308 8.58055C11.1091 7.57372 11.2655 6.56688 11.5785 5.71495C11.8132 4.86302 12.2044 4.01108 12.6737 3.23659C13.1432 2.53956 13.6126 1.99741 14.2385 1.53272C14.786 1.06802 15.4901 0.68078 16.2724 0.370985C16.5072 0.370985 16.6637 0.370986 16.7419 0.293537C17.0548 0.216088 17.2895 0.293537 17.446 0.448434C17.6024 0.603332 17.6806 0.835678 17.6024 1.06802C17.5242 1.22292 17.5242 1.37781 17.5242 1.53272C17.446 1.76506 17.446 2.07486 17.3678 2.3072C17.3678 2.53956 17.2895 2.7719 17.2895 3.00424C17.2895 3.31404 17.2895 3.54639 17.2895 3.70129C17.2895 4.24342 17.3678 4.78557 17.5242 5.25026C17.6024 5.56005 17.7589 5.86985 17.9936 6.17964C18.1501 6.41199 18.3065 6.56688 18.5412 6.72178C18.776 6.79924 19.0106 6.87669 19.1671 6.87669C19.4018 6.87669 19.6365 6.79924 19.8712 6.64433C20.1059 6.48943 20.3406 6.33454 20.4971 6.1022C20.4971 6.02475 20.5753 6.02475 20.5753 5.9473C20.5753 5.86985 20.6535 5.7924 20.7317 5.71495L20.8883 5.56005C21.1229 5.3277 21.6706 5.3277 21.827 5.63751L22.1399 6.25709C22.4529 6.79924 22.6094 7.41882 22.7658 7.96097V8.19331C22.7658 8.34821 22.844 8.5031 22.844 8.658C22.844 8.73545 22.844 8.8129 22.844 8.89034C22.844 8.96779 22.844 9.04525 22.844 9.1227C22.844 9.89719 22.6876 10.5168 22.4529 10.9815V11.0589L22.5311 11.1363H22.6094L22.7658 11.0589C22.9222 11.0589 23.0006 10.9815 23.157 10.8266C23.3135 10.6717 23.4699 10.6717 23.5481 10.6717C23.8611 10.6717 24.0176 10.904 24.0176 11.1363V11.5236C24.0176 11.6011 24.0176 11.6785 24.0176 11.7559C24.0176 11.8334 24.0176 11.8334 24.0176 11.9108C24.0176 12.2207 23.9393 12.5304 23.8611 12.7628C23.7829 13.2275 23.6263 13.6922 23.4699 14.1568C25.5822 14.9314 27.4598 16.2479 29.0245 18.0293L29.2592 18.1842L24.174 23.0635L23.9393 22.8311C22.1399 20.8175 19.793 19.8106 16.9765 19.8106C14.5514 19.8106 12.5955 20.5851 11.0308 22.2116C10.3268 22.9086 9.77913 23.7605 9.38797 24.6125H11.6567V27.6329H8.68387C8.68387 27.7878 8.68387 27.8653 8.68387 28.0202C8.68387 28.0977 8.68387 28.1751 8.68387 28.2525H11.5785V31.273H9.23149C9.62267 32.2024 10.2485 33.1318 11.0308 33.9063C12.5955 35.4553 14.786 36.2298 17.3678 36.2298C19.7147 36.2298 21.5141 35.8425 22.6094 34.9906V31.3505H16.9765V24.6899H29.5721V38.7081L29.4938 38.7856C28.1639 40.1796 26.4427 41.2639 24.4087 41.961C22.2965 42.7355 19.9494 43.1227 17.446 43.1227ZM0.704097 30.576H2.42522V30.8083C2.97286 33.6739 4.38105 36.1523 6.57158 38.2435C9.4662 41.0316 13.1432 42.4257 17.446 42.4257C19.8712 42.4257 22.1399 42.0384 24.174 41.3414C26.1299 40.7218 27.6945 39.715 28.868 38.3983V25.3869H17.6806V30.6534H23.3135V35.3778L23.157 35.4553C21.9053 36.4621 19.9494 36.9268 17.3678 36.9268C14.5514 36.9268 12.2826 36.0749 10.5615 34.3709C9.54444 33.4416 8.84033 32.2799 8.44917 30.9633L8.29271 30.576H10.9526V28.9496H8.058L7.97977 28.6397C7.97977 28.4074 7.97977 28.2525 7.97977 28.0202C7.97977 27.7878 7.97977 27.4781 7.97977 27.2458V26.9359H10.8744V25.3095H8.37094L8.5274 24.8448C8.91857 23.7605 9.62267 22.6762 10.4832 21.7468C12.2044 20.043 14.3949 19.191 16.9765 19.191C19.8712 19.191 22.2965 20.1979 24.2522 22.134L28.3204 18.2616C26.7557 16.6352 25.0345 15.4735 22.9222 14.699L22.5311 14.5441L22.6876 14.2344C22.9222 13.7696 23.0788 13.2275 23.2352 12.6079C23.3135 12.3755 23.3135 12.1432 23.3135 11.9108C23.3135 11.9108 23.3135 11.8334 23.3135 11.7559C23.3135 11.6785 23.3135 11.6785 23.3135 11.6011C23.3135 11.6011 23.157 11.6785 23.0788 11.7559L22.9222 11.8334C22.6094 11.9108 22.3747 11.9108 22.2181 11.8334C21.9835 11.6785 21.827 11.5236 21.827 11.2912C21.7488 11.1363 21.827 10.9815 21.827 10.904V10.8266C22.0617 10.2844 22.1399 9.81973 22.1399 9.1227C22.1399 9.04525 22.1399 8.96779 22.1399 8.89034C22.1399 8.8129 22.1399 8.658 22.1399 8.58055C22.1399 8.5031 22.1399 8.34821 22.0617 8.19331V7.96097C21.9835 7.57372 21.7488 7.10903 21.514 6.64433L21.2794 6.17964C21.2794 6.17964 21.2794 6.25709 21.2012 6.25709C21.2012 6.33454 21.1229 6.41199 21.0447 6.41199C20.81 6.79924 20.5753 7.03158 20.1842 7.26393C19.9494 7.41882 19.6365 7.57372 19.2453 7.57372C18.9324 7.57372 18.5412 7.49627 18.2283 7.34137C17.9154 7.10903 17.6806 6.87669 17.446 6.72178C17.2113 6.25709 16.9765 5.9473 16.8983 5.56005C16.7419 5.01791 16.5854 4.39832 16.5854 3.77873C16.5854 3.54639 16.5854 3.23659 16.5854 3.00424C16.5854 2.7719 16.5854 2.53956 16.6637 2.22975C16.6637 1.91996 16.7419 1.68762 16.8201 1.37781C16.8201 1.22292 16.8983 1.06802 16.8983 0.913127C16.8201 0.990576 16.6637 1.06802 16.5072 1.06802C15.8031 1.37782 15.1772 1.68762 14.6296 2.1523C14.1601 2.53956 13.6908 3.00424 13.2996 3.62384C12.8303 4.32087 12.5173 5.09536 12.2826 5.9473C11.9696 6.72179 11.8132 7.65117 11.735 8.658C11.735 8.8129 11.735 8.9678 11.735 9.20015C11.735 9.35504 11.735 9.58739 11.735 9.74228V9.81973C11.735 9.97464 11.735 10.0521 11.735 10.1295C11.735 10.2844 11.735 10.3619 11.735 10.5168C11.735 10.5942 11.735 10.7491 11.5785 10.904C11.5003 11.0589 11.4221 11.1363 11.2655 11.2138C11.0308 11.2912 10.8744 11.2138 10.6397 11.1363C10.4832 11.0589 10.3268 10.904 10.2485 10.8266C10.0138 10.6717 9.77913 10.4393 9.54444 10.207L9.4662 10.1295C9.30974 10.1295 9.30974 10.1295 9.30974 10.207C9.30974 10.4393 9.23149 10.6717 9.23149 10.9815C9.23149 11.2912 9.23149 11.6011 9.23149 11.8334C9.30974 12.2207 9.38797 12.5304 9.4662 12.9177C9.7009 13.6148 9.9356 14.2344 10.2485 14.699L10.4832 15.0088L10.0921 15.1637C8.7621 15.7833 7.43214 16.7127 6.33688 17.7969C4.30282 19.888 3.05109 22.289 2.50345 25.0772L2.42522 25.3095H0.704097V26.9359H2.26876L2.19053 27.3232C2.19053 27.5555 2.19053 27.7878 2.19053 28.0202C2.19053 28.1751 2.19053 28.33 2.19053 28.4849L2.26876 28.8722H0.704097V30.576ZM11.0308 10.5168C11.0308 10.5942 11.0308 10.5942 11.0308 10.5168V10.5168Z" fill="url(#paint1_linear_453_449)"/>
</g>
<defs>
<linearGradient id="paint0_linear_453_449" x1="0.319147" y1="21.6765" x2="29.2497" y2="21.6765" gradientUnits="userSpaceOnUse">
<stop stop-color="#C99004"/>
<stop offset="1" stop-color="#F5CE11"/>
</linearGradient>
<linearGradient id="paint1_linear_453_449" x1="26.8065" y1="40.9796" x2="4.27265" y2="8.47098" gradientUnits="userSpaceOnUse">
<stop stop-color="#F5CD16"/>
<stop offset="0.0332" stop-color="#E9BC10"/>
<stop offset="0.0843" stop-color="#DBA809"/>
<stop offset="0.1357" stop-color="#D39C05"/>
<stop offset="0.1874" stop-color="#D09804"/>
<stop offset="0.2211" stop-color="#DAAE39"/>
<stop offset="0.2978" stop-color="#F2E3BC"/>
<stop offset="0.3358" stop-color="white"/>
<stop offset="0.3511" stop-color="#FDF6D5"/>
<stop offset="0.372" stop-color="#FAEBA2"/>
<stop offset="0.3934" stop-color="#F8E176"/>
<stop offset="0.4148" stop-color="#F6D952"/>
<stop offset="0.4362" stop-color="#F5D336"/>
<stop offset="0.4577" stop-color="#F4CE22"/>
<stop offset="0.4792" stop-color="#F3CC16"/>
<stop offset="0.501" stop-color="#F3CB12"/>
<stop offset="0.5485" stop-color="#EFC611"/>
<stop offset="0.6068" stop-color="#E5B70C"/>
<stop offset="0.6705" stop-color="#D49E05"/>
<stop offset="0.6814" stop-color="#D19904"/>
<stop offset="0.7298" stop-color="#D6A007"/>
<stop offset="0.7991" stop-color="#E5B30F"/>
<stop offset="0.8701" stop-color="#FACD1B"/>
<stop offset="1" stop-color="#D09A0F"/>
</linearGradient>
<clipPath id="clip0_453_449">
<rect width="85" height="44.7368" fill="white" transform="translate(0 0.263153)"/>
</clipPath>
</defs>
</svg>
