<svg width="192" height="39" viewBox="0 0 192 39" fill="none" xmlns="http://www.w3.org/2000/svg">
<path d="M54.834 27.0833V25.0467L60.9144 16.25H55.1597V13.13H66.2783V15.2533L60.263 23.9633H66.4086V27.0833H54.834ZM73.4907 27.3C72.289 27.3 71.2249 27.105 70.2984 26.715C69.3864 26.3106 68.6697 25.7111 68.1486 24.9167C67.6418 24.1223 67.3885 23.14 67.3885 21.97C67.3885 20.3377 67.8518 19.0377 68.7783 18.07C69.7048 17.0877 71.0875 16.5967 72.926 16.5967C74.6054 16.5967 75.9156 17.0227 76.8566 17.875C77.8121 18.7273 78.2899 19.89 78.2899 21.3633V23.1617H71.1453C71.3335 23.7106 71.7027 24.1006 72.2529 24.3317C72.803 24.5627 73.5485 24.6783 74.4896 24.6783C75.0832 24.6783 75.6767 24.6277 76.2703 24.5267C76.8783 24.4111 77.3634 24.2811 77.7253 24.1367V26.585C76.7119 27.0617 75.3004 27.3 73.4907 27.3ZM71.1453 20.9517H74.7719V20.5833C74.7719 20.1789 74.6416 19.8467 74.381 19.5867C74.1349 19.3267 73.6934 19.1967 73.0563 19.1967C72.347 19.1967 71.8475 19.3483 71.5579 19.6517C71.2829 19.9406 71.1453 20.3739 71.1453 20.9517ZM80.0972 15.4483V12.5017H84.5055V15.4483H80.0972ZM80.4229 27.0833V19.7817H78.9245L79.272 16.8133H84.5055V27.0833H80.4229ZM90.8721 27.3C89.4967 27.3 88.4978 26.9533 87.8753 26.26C87.2527 25.5667 86.9415 24.6277 86.9415 23.4433V19.825H85.5951V16.8133H86.9415V14.7117L91.0241 13.7367V16.8133H93.3911L93.2391 19.825H91.0241V23.14C91.0241 23.5733 91.1327 23.8839 91.3498 24.0717C91.567 24.245 91.8999 24.3317 92.3488 24.3317C92.7685 24.3317 93.1957 24.2594 93.63 24.115V26.8233C92.8627 27.1411 91.9433 27.3 90.8721 27.3ZM99.2301 30.8967C98.7235 30.8967 98.1733 30.875 97.5797 30.8317C96.9862 30.8027 96.4216 30.745 95.8858 30.6583C95.3647 30.5717 94.9303 30.4706 94.5829 30.355V27.755C94.9738 27.885 95.4226 27.9933 95.9293 28.08C96.4505 28.1667 96.9789 28.2317 97.5145 28.275C98.0503 28.3183 98.5425 28.34 98.9912 28.34C99.7585 28.34 100.359 28.2967 100.794 28.21C101.243 28.1377 101.467 28.0006 101.467 27.7983C101.467 27.625 101.395 27.5094 101.25 27.4517C101.105 27.4083 100.83 27.3867 100.424 27.3867H97.71C96.6532 27.3867 95.8353 27.2206 95.2561 26.8883C94.6915 26.5417 94.4092 26.0289 94.4092 25.35C94.4092 24.3967 94.9376 23.7323 95.9944 23.3567C95.4009 23.0533 94.9666 22.6706 94.6915 22.2083C94.4164 21.7461 94.2789 21.1611 94.2789 20.4533C94.2789 19.1244 94.7277 18.1494 95.6253 17.5283C96.5373 16.9073 97.8476 16.5967 99.5558 16.5967C99.9178 16.5967 100.323 16.6256 100.772 16.6833C101.221 16.7267 101.547 16.77 101.749 16.8133H105.788L105.701 19.2833H104.333C104.594 19.6156 104.724 20.02 104.724 20.4967C104.724 21.5511 104.413 22.3889 103.79 23.01C103.182 23.6167 102.22 23.92 100.902 23.92C100.714 23.92 100.511 23.9127 100.294 23.8983C100.077 23.8694 99.8744 23.8477 99.6861 23.8333C99.3677 23.8623 99.0926 23.92 98.8609 24.0067C98.6293 24.0933 98.5135 24.2377 98.5135 24.44C98.5135 24.5844 98.5786 24.6856 98.7089 24.7433C98.8392 24.7867 99.0202 24.8083 99.2518 24.8083H101.619C102.676 24.8083 103.508 25.0539 104.116 25.545C104.724 26.0361 105.028 26.7583 105.028 27.7117C105.028 28.7227 104.558 29.5027 103.617 30.0517C102.676 30.615 101.214 30.8967 99.2301 30.8967ZM99.5775 21.6883C100.215 21.6883 100.656 21.58 100.902 21.3633C101.148 21.1467 101.271 20.7856 101.271 20.28C101.271 19.7744 101.148 19.4061 100.902 19.175C100.656 18.9439 100.215 18.8283 99.5775 18.8283C98.9841 18.8283 98.5497 18.9439 98.2746 19.175C98.014 19.3917 97.8837 19.76 97.8837 20.28C97.8837 20.7711 98.0068 21.1323 98.2529 21.3633C98.5135 21.58 98.9551 21.6883 99.5775 21.6883ZM112.533 27.3C111.331 27.3 110.267 27.105 109.341 26.715C108.428 26.3106 107.712 25.7111 107.19 24.9167C106.684 24.1223 106.43 23.14 106.43 21.97C106.43 20.3377 106.894 19.0377 107.82 18.07C108.747 17.0877 110.129 16.5967 111.969 16.5967C113.647 16.5967 114.958 17.0227 115.899 17.875C116.855 18.7273 117.332 19.89 117.332 21.3633V23.1617H110.188C110.376 23.7106 110.745 24.1006 111.295 24.3317C111.845 24.5627 112.591 24.6783 113.532 24.6783C114.125 24.6783 114.719 24.6277 115.313 24.5267C115.921 24.4111 116.405 24.2811 116.768 24.1367V26.585C115.754 27.0617 114.342 27.3 112.533 27.3ZM110.188 20.9517H113.814V20.5833C113.814 20.1789 113.684 19.8467 113.424 19.5867C113.177 19.3267 112.735 19.1967 112.099 19.1967C111.389 19.1967 110.889 19.3483 110.6 19.6517C110.325 19.9406 110.188 20.3739 110.188 20.9517ZM119.139 15.4483V12.5017H123.547V15.4483H119.139ZM119.465 27.0833V19.7817H117.966L118.314 16.8133H123.547V27.0833H119.465ZM129.524 27.3C128.64 27.3 127.808 27.235 127.026 27.105C126.259 26.9894 125.651 26.8377 125.202 26.65V23.725C125.708 23.9561 126.31 24.1367 127.005 24.2667C127.714 24.3967 128.314 24.4617 128.807 24.4617C129.328 24.4617 129.719 24.4473 129.98 24.4183C130.254 24.3894 130.392 24.2667 130.392 24.05C130.392 23.8044 130.153 23.6167 129.676 23.4867C129.198 23.3567 128.596 23.1689 127.873 22.9233C126.932 22.5911 126.229 22.2011 125.767 21.7533C125.303 21.3056 125.072 20.6556 125.072 19.8033C125.072 18.7777 125.477 17.9906 126.288 17.4417C127.098 16.8783 128.373 16.5967 130.109 16.5967C130.776 16.5967 131.463 16.6473 132.173 16.7483C132.882 16.8494 133.439 16.965 133.845 17.095V19.955C133.411 19.7673 132.933 19.63 132.412 19.5433C131.905 19.4567 131.441 19.4133 131.022 19.4133C130.558 19.4133 130.146 19.435 129.784 19.4783C129.422 19.5217 129.241 19.6444 129.241 19.8467C129.241 20.0777 129.443 20.2439 129.849 20.345C130.269 20.4461 130.827 20.605 131.522 20.8217C132.303 21.0527 132.911 21.3056 133.346 21.58C133.794 21.8544 134.106 22.1867 134.279 22.5767C134.467 22.9667 134.562 23.4506 134.562 24.0283C134.562 25.0683 134.134 25.8773 133.281 26.455C132.44 27.0183 131.188 27.3 129.524 27.3ZM140.179 27.3C138.803 27.3 137.804 26.9533 137.182 26.26C136.559 25.5667 136.248 24.6277 136.248 23.4433V19.825H134.902V16.8133H136.248V14.7117L140.331 13.7367V16.8133H142.698L142.546 19.825H140.331V23.14C140.331 23.5733 140.439 23.8839 140.656 24.0717C140.873 24.245 141.206 24.3317 141.655 24.3317C142.074 24.3317 142.502 24.2594 142.937 24.115V26.8233C142.169 27.1411 141.249 27.3 140.179 27.3Z" fill="white"/>
<path d="M19.0046 2.97686e-05C14.5381 -0.00729148 10.2122 1.5761 6.78827 4.47149H31.2178C27.7954 1.57559 23.4702 -0.00791743 19.0046 2.97686e-05ZM19.0046 38.3628C23.429 38.371 27.7167 36.8166 31.125 33.9689H6.8811C10.2909 36.8161 14.5794 38.3705 19.0046 38.3628ZM28.0749 9.73771H35.5704C34.953 8.63955 34.2305 7.60506 33.4133 6.64906H4.60874C3.4069 8.04725 2.41288 9.61444 1.65786 11.3014H26.9707L28.0749 9.73771ZM18.8222 20.3089H0.00319875C0.0934524 21.8893 0.378355 23.4521 0.851332 24.9613H17.0619L18.1789 23.375H37.5772C37.8008 22.3663 37.9431 21.3409 38.0028 20.3089H18.8222ZM23.0564 16.5547H37.8589C37.7188 15.5078 37.4919 14.4746 37.1804 13.466H0.825732C0.36055 14.9763 0.0831792 16.5391 0 18.1184H21.9555L23.0564 16.5547ZM4.66314 31.7913H12.2003L13.3013 30.2276H34.5623C35.2448 29.2562 35.8353 28.222 36.3257 27.1389H1.68346C2.44792 28.8274 3.45166 30.3945 4.66314 31.7913Z" fill="white"/>
</svg>
