<svg width="116" height="30" viewBox="0 0 116 30" fill="none" xmlns="http://www.w3.org/2000/svg">
<g clip-path="url(#clip0_453_576)">
<path d="M0.0195312 0.578841V11.2774V10.8583C0.0993716 20 7.76404 27.8044 17.2451 27.8044C26.7261 27.8044 34.3908 20.4192 34.4706 11.2774V0.578841C34.4706 0.578841 32.0754 -0.578844 29.3608 2.19561C27.6243 3.97205 26.2271 10.3992 22.4946 10.4391C17.5046 10.519 14.1113 3.89221 10.0595 1.41716C5.80796 -1.17765 0.0195312 0.578841 0.0195312 0.578841Z" fill="url(#paint0_linear_453_576)"/>
<path d="M0.0195312 0.578841V11.2774V10.8583C0.0993716 20 7.76404 27.8044 17.2451 27.8044C26.7261 27.8044 34.3908 20.4192 34.4706 11.2774V0.578841C34.4706 0.578841 32.0754 -0.578844 29.3608 2.19561C27.6243 3.97205 26.2271 10.3992 22.4946 10.4391C17.5046 10.519 14.1113 3.89221 10.0595 1.41716C5.80796 -1.17765 0.0195312 0.578841 0.0195312 0.578841Z" fill="url(#paint1_linear_453_576)"/>
<path d="M34.4711 12.3154V4.89022C33.493 5.0499 32.2954 5.52894 31.0379 6.68663C29.0818 8.48303 27.525 14.9701 23.3333 15.0299C17.7445 15.1098 13.9321 8.40319 9.38124 5.88822C6.20758 4.17166 2.27545 4.37126 0 4.71058V12.3353V11.8762C0.0798403 21.6567 7.76447 30 17.2255 30C26.7066 30 34.3912 22.0958 34.4711 12.3154Z" fill="url(#paint2_linear_453_576)"/>
<path d="M34.4711 12.3154V4.89022C33.493 5.0499 32.2954 5.52894 31.0379 6.68663C29.0818 8.48303 27.525 14.9701 23.3333 15.0299C17.7445 15.1098 13.9321 8.40319 9.38124 5.88822C6.20758 4.17166 2.27545 4.37126 0 4.71058V12.3353V11.8762C0.0798403 21.6567 7.76447 30 17.2255 30C26.7066 30 34.3912 22.0958 34.4711 12.3154Z" fill="url(#paint3_linear_453_576)"/>
<path d="M34.4711 12.3154V10.6188C33.7325 10.8982 32.9142 11.3573 32.0758 12.0758C29.9601 13.8723 28.2834 20.3593 23.7725 20.4192C17.7445 20.499 13.6527 13.7924 8.74251 11.2774C5.90818 9.86028 2.47505 9.76048 0 9.96008V12.3353V11.8762C0.0798403 21.6567 7.76447 30 17.2255 30C26.7066 30 34.3912 22.0958 34.4711 12.3154Z" fill="url(#paint4_linear_453_576)"/>
<path d="M50.959 23.0539C50.6197 22.4351 50.3004 21.2375 50.2205 20.3593C49.1826 22.2954 47.2664 23.3533 45.1706 23.3533C42.5558 23.3533 41.1786 21.7166 41.1786 18.7226V12.4351C41.1786 11.0579 41.1387 10.1597 40.3203 8.26347C42.456 7.64471 44.492 6.98602 46.5878 6.12774V18.1038C46.5878 19.5808 46.987 20.2794 48.2445 20.2794C48.8433 20.2794 49.5419 20.0798 50.1606 19.4212V12.3952C50.1606 10.978 50.0808 9.54091 49.6017 8.14371C51.6776 7.58483 53.5139 6.92614 55.5898 6.00798V18.2834C55.5898 19.9002 55.7095 21.1377 56.4081 23.0539H50.959ZM83.6536 23.0539H77.6656C77.3063 21.6766 77.1866 19.1617 77.1866 17.4651V11.4172C77.1866 9.74052 76.6277 9.24151 75.5299 9.24151C74.9311 9.24151 74.1926 9.48103 73.5738 10.1996V17.4052C73.5738 19.1816 73.8732 21.1976 74.5718 23.0738H68.1447V11.4172C68.1447 9.74052 67.5858 9.24151 66.5279 9.24151C65.9091 9.24151 65.1906 9.48103 64.5718 10.1996V18.483C64.5718 20.3593 64.6117 21.4172 65.4301 23.0539H58.3043C59.0828 21.4172 59.1626 20.3593 59.1626 18.483V12.0958C59.1626 10.4591 59.1227 9.62075 58.3043 8.14371C60.0808 7.48503 61.9171 6.78642 63.6536 6.0479C64.1327 6.9461 64.5119 8.18363 64.5718 9.24151C65.5698 7.22554 67.5259 6.1477 69.5818 6.1477C71.7974 6.1477 73.0948 7.30539 73.454 9.44111C74.452 7.34531 76.4481 6.1477 78.6237 6.1477C81.1986 6.1477 82.6157 7.78443 82.6157 10.7784V17.3852C82.6157 19.1816 82.8752 21.1776 83.6536 23.0539ZM99.1227 14.9102H89.6816C90.0808 17.6647 91.4181 19.3812 95.2505 19.3812C96.9471 19.3812 98.0249 19.0619 99.0429 18.6228C98.7035 20.5988 96.6477 23.493 92.2964 23.493C87.6057 23.493 84.2924 20.0798 84.2924 14.9301C84.2924 10 87.2065 6.10778 92.2964 6.10778C96.2884 6.10778 99.1227 8.90219 99.1227 13.7725V14.9102ZM93.5738 12.5748C93.5738 9.06187 92.8353 7.84431 91.6576 7.84431C90.4401 7.84431 89.5618 9.20159 89.5618 12.7146C89.5618 13.0738 89.5618 13.4331 89.6017 13.7924H93.5938V12.5748H93.5738ZM115.729 14.9102H106.288C106.688 17.6647 108.025 19.3812 111.857 19.3812C113.554 19.3812 114.632 19.0619 115.65 18.6228C115.31 20.5988 113.254 23.493 108.903 23.493C104.213 23.493 100.899 20.0798 100.899 14.9301C100.899 10 103.813 6.10778 108.903 6.10778C112.236 6.10778 115.729 8.90219 115.729 13.7725V14.9102ZM110.181 12.5748C110.181 9.06187 109.442 7.84431 108.264 7.84431C107.047 7.84431 106.169 9.20159 106.169 12.7146C106.169 13.0738 106.169 13.4331 106.209 13.7924H110.201V12.5748H110.181Z" fill="white"/>
</g>
<defs>
<linearGradient id="paint0_linear_453_576" x1="-2.65332" y1="21.223" x2="41.3764" y2="-1.8002" gradientUnits="userSpaceOnUse">
<stop stop-color="#FDA9FF"/>
<stop offset="0.028" stop-color="#F9AAFF"/>
<stop offset="0.243" stop-color="#DCB3FF"/>
<stop offset="0.367" stop-color="#D1B6FF"/>
<stop offset="0.89" stop-color="#4DFFE5"/>
</linearGradient>
<linearGradient id="paint1_linear_453_576" x1="15.3127" y1="14.0074" x2="19.8503" y2="-2.62994" gradientUnits="userSpaceOnUse">
<stop stop-color="#16183C" stop-opacity="0.3"/>
<stop offset="0.867" stop-color="#16183C" stop-opacity="0"/>
</linearGradient>
<linearGradient id="paint2_linear_453_576" x1="-1.19281" y1="22.4739" x2="38.2996" y2="4.99621" gradientUnits="userSpaceOnUse">
<stop stop-color="#FDA9FF"/>
<stop offset="0.028" stop-color="#F9AAFF"/>
<stop offset="0.243" stop-color="#DCB3FF"/>
<stop offset="0.367" stop-color="#D1B6FF"/>
<stop offset="0.89" stop-color="#4DFFE5"/>
</linearGradient>
<linearGradient id="paint3_linear_453_576" x1="13.284" y1="18.6776" x2="19.3339" y2="6.24172" gradientUnits="userSpaceOnUse">
<stop stop-color="#16183C" stop-opacity="0.3"/>
<stop offset="0.867" stop-color="#16183C" stop-opacity="0"/>
</linearGradient>
<linearGradient id="paint4_linear_453_576" x1="-2.88603" y1="24.9868" x2="32.5731" y2="11.3744" gradientUnits="userSpaceOnUse">
<stop stop-color="#FDA9FF"/>
<stop offset="0.028" stop-color="#F9AAFF"/>
<stop offset="0.243" stop-color="#DCB3FF"/>
<stop offset="0.367" stop-color="#D1B6FF"/>
<stop offset="0.89" stop-color="#4DFFE5"/>
</linearGradient>
<clipPath id="clip0_453_576">
<rect width="115.729" height="30" fill="white"/>
</clipPath>
</defs>
</svg>
