<svg width="120" height="30" viewBox="0 0 120 30" fill="none" xmlns="http://www.w3.org/2000/svg">
<g clip-path="url(#clip0_452_250)">
<path d="M49.5009 19.909C47.5918 22.2272 44.8645 23.7272 41.8645 23.7272C36.6827 23.7272 32.5918 20.0454 32.5918 15.2727C32.5918 12.9545 33.5463 10.7727 35.3191 9.13631C36.9554 7.49995 39.2736 6.68176 41.5918 6.81813C44.5918 6.81813 47.4554 8.18176 49.2282 10.6363L45.8191 13.0909C44.8645 11.5909 43.3645 10.6363 41.5918 10.6363C39.0009 10.6363 36.8191 12.8181 36.8191 15.409C36.9554 18.1363 39.1373 20.1818 41.7282 20.1818C43.5009 20.1818 45.1373 19.3636 46.0918 17.8636L49.5009 19.909Z" fill="#5A5A5A"/>
<path d="M55.6374 0H51.4102V23.3182H55.6374V0Z" fill="#5A5A5A"/>
<path d="M66.9544 20.0454C69.6816 20.0454 71.9998 17.8636 72.1362 15.1363C71.9998 12.409 69.6816 10.2272 66.9544 10.2272C64.2271 10.2272 61.9089 12.409 61.7725 15.1363C61.9089 17.8636 64.0907 20.0454 66.9544 20.0454ZM66.9544 6.68177C69.2725 6.54541 71.5907 7.36359 73.3635 8.99996C75.1362 10.6363 76.0907 12.8181 76.2271 15.1363C76.0907 17.4545 75.1362 19.7727 73.3635 21.2727C71.5907 22.909 69.2725 23.7272 66.9544 23.5909C61.7725 23.5909 57.6816 19.909 57.6816 15.1363C57.6816 10.3636 61.7725 6.68177 66.9544 6.68177Z" fill="#5A5A5A"/>
<path d="M75.4102 6.95459H80.4556L84.5465 15.6819L88.9102 6.95459H93.5465L84.5465 24.2728L75.4102 6.95459Z" fill="#5A5A5A"/>
<path d="M105.681 12.8181C105 11.1818 103.5 10.2272 101.727 10.2272C99.9542 10.2272 98.3178 11.1818 97.4996 12.8181H105.681ZM108.409 21.409C106.636 22.909 104.454 23.5909 102.136 23.5909C96.9542 23.5909 92.8633 19.909 92.8633 15.1363C92.8633 12.8181 93.8178 10.6363 95.4542 8.99996C97.0906 7.36359 99.4087 6.54541 101.727 6.68177C104.045 6.54541 106.227 7.49996 107.863 9.13632C109.5 10.7727 110.318 12.9545 110.181 15.2727V16.3636H97.0906C97.7724 18.5454 99.8178 20.0454 102.136 20.0454C103.5 20.0454 104.863 19.5 105.954 18.409L108.409 21.409ZM112.227 14.1818C112.227 10.2272 115.227 7.09087 120 7.09087V10.909C119.045 10.909 117.954 11.3181 117.272 12C116.591 12.6818 116.318 13.7727 116.454 14.7272V23.3181H112.227V14.1818Z" fill="#5A5A5A"/>
<path d="M13.2275 7.63633C13.2275 4.90906 11.5911 2.59088 9.13656 1.49997C6.68201 0.409062 3.81838 0.954516 1.90929 2.86361C0.000197139 4.7727 -0.545257 7.63634 0.409288 10.0909C1.36383 12.5454 3.81838 14.1818 6.54565 14.1818H13.2275V7.63633ZM15.1366 7.63633C15.1366 4.90906 16.7729 2.59088 19.2275 1.49997C21.682 0.409062 24.5457 0.954516 26.4547 2.86361C28.3638 4.7727 28.9093 7.63634 27.9547 10.0909C27.0002 12.5454 24.5457 14.1818 21.8184 14.1818H15.1366V7.63633ZM15.1366 22.6363C15.1366 25.3636 16.7729 27.6818 19.2275 28.7727C21.682 29.8636 24.5457 29.3182 26.4547 27.4091C28.3638 25.5 28.9093 22.6363 27.9547 20.1818C27.0002 17.7272 24.5457 16.0909 21.8184 16.0909H15.1366V22.6363ZM6.54565 27.4091C9.13656 27.4091 11.3184 25.3636 11.3184 22.6363V17.8636H6.54565C3.95474 17.8636 1.77292 19.9091 1.77292 22.6363C1.77292 25.3636 3.95474 27.4091 6.54565 27.4091ZM13.2275 22.6363C13.2275 25.3636 11.5911 27.6818 9.13656 28.7727C6.68201 29.8636 3.81838 29.3182 1.90929 27.4091C0.000197139 25.5 -0.545257 22.6363 0.409288 20.1818C1.36383 17.7272 3.81838 16.0909 6.54565 16.0909H13.2275V22.6363Z" fill="#228800"/>
</g>
<defs>
<clipPath id="clip0_452_250">
<rect width="120" height="30" fill="white"/>
</clipPath>
</defs>
</svg>
