<svg width="129" height="30" viewBox="0 0 129 30" fill="none" xmlns="http://www.w3.org/2000/svg">
<path fill-rule="evenodd" clip-rule="evenodd" d="M18.591 28.1852H46.4766V0.263519H18.591V28.1852ZM27.8865 18.8777H37.1811V9.57019H27.8865V18.8785V18.8777ZM0 18.8777H9.29549V9.57019H0V18.8777Z" fill="#D73252"/>
<path fill-rule="evenodd" clip-rule="evenodd" d="M59.3754 16.9017H64.5853L61.9662 9.785L59.3754 16.9017ZM70.3787 22.9442H66.785L65.5865 19.6692H58.3725L57.1749 22.9442H53.582L60.211 6.0025H63.7489L70.3787 22.9442Z" fill="white"/>
<mask id="mask0_453_635" style="mask-type:alpha" maskUnits="userSpaceOnUse" x="71" y="10" width="13" height="19">
<path d="M71.3477 10.8017H83.4928V28.5358H71.3477V10.8017Z" fill="white"/>
</mask>
<g mask="url(#mask0_453_635)">
<path fill-rule="evenodd" clip-rule="evenodd" d="M79.5512 14.5291C79.0227 13.9074 78.3403 13.5966 77.5039 13.5966C76.7049 13.5966 76.0466 13.9216 75.5264 14.5716C75.0063 15.2208 74.7466 16.0441 74.7466 17.0416C74.7466 18.0399 75.0013 18.8533 75.5123 19.4841C76.0233 20.1149 76.6866 20.4299 77.5047 20.4299C78.3586 20.4299 79.0452 20.1241 79.5654 19.5133C80.0855 18.9008 80.3452 18.0774 80.3452 17.0416C80.3452 15.9874 80.0805 15.1499 79.5512 14.5291ZM83.4928 22.4808C83.4928 24.2308 82.9726 25.6433 81.9331 26.7166C80.8928 27.7891 79.3698 28.5358 77.4206 28.5358C74.9413 28.5358 73.0371 27.3883 71.6215 25.4474L73.4466 23.7183C74.5527 24.9691 76.2721 26.2349 78.3195 25.5383C79.8275 25.0249 80.1504 23.5824 80.1504 22.5658V21.6158H80.0115C79.9808 21.6736 79.9481 21.7303 79.9133 21.7858C79.8675 21.8608 79.7551 21.9924 79.5787 22.1808C79.401 22.3702 79.1999 22.5363 78.9803 22.6749C78.7572 22.8166 78.4418 22.9433 78.0332 23.0566C77.5973 23.173 77.1477 23.2299 76.6966 23.2258C75.1552 23.2258 73.8786 22.6424 72.8657 21.4758C71.8537 20.3074 71.3477 18.8108 71.3477 16.9841C71.3477 15.1208 71.8637 13.6241 72.894 12.4949C73.9243 11.3666 75.2293 10.8016 76.8081 10.8016C77.3262 10.7963 77.8422 10.8676 78.3395 11.0133C78.8039 11.1549 79.175 11.3283 79.4538 11.5358C79.7327 11.7424 79.9698 11.9499 80.1646 12.1566C80.3593 12.3641 80.4942 12.5333 80.5682 12.6649L80.6798 12.8908H80.7913L81.3198 11.0841H83.492V22.4808H83.4928Z" fill="white"/>
</g>
<path fill-rule="evenodd" clip-rule="evenodd" d="M93.8646 19.5834C94.3939 18.9434 94.6586 18.0867 94.6586 17.0142C94.6586 15.96 94.3939 15.1084 93.8646 14.4584C93.3353 13.8084 92.662 13.4842 91.8447 13.4842C91.0091 13.4842 90.3267 13.8092 89.7974 14.4592C89.268 15.1084 89.0034 15.9592 89.0034 17.0142C89.0034 18.0867 89.263 18.9434 89.7832 19.5834C90.3034 20.2234 90.99 20.5434 91.8447 20.5434C92.662 20.5434 93.3345 20.2234 93.8646 19.5834ZM96.1766 21.5175C94.9973 22.6567 93.5533 23.2259 91.8447 23.2259C90.1178 23.2259 88.6647 22.6567 87.4853 21.5175C86.306 20.3792 85.7168 18.8967 85.7168 17.0709C85.7168 15.2259 86.306 13.7192 87.4853 12.5525C88.6647 11.3859 90.1178 10.8025 91.8447 10.8025C93.5533 10.8025 94.9973 11.3859 96.1766 12.5525C97.3551 13.7192 97.9452 15.2259 97.9452 17.0709C97.9452 18.8959 97.3551 20.3792 96.1766 21.5175ZM107.77 13.9359H106.211C105.412 13.9359 104.767 14.195 104.274 14.7125C103.783 15.2309 103.537 15.9317 103.537 16.8159V22.9434H100.194V11.085H102.283L102.756 12.835H102.924C103.537 11.6684 104.623 11.085 106.183 11.085H107.77V13.9359Z" fill="white"/>
<mask id="mask1_453_635" style="mask-type:alpha" maskUnits="userSpaceOnUse" x="0" y="0" width="129" height="29">
<path d="M0 28.5367H128.95V0.262512H0V28.5367Z" fill="white"/>
</mask>
<g mask="url(#mask1_453_635)">
<path fill-rule="evenodd" clip-rule="evenodd" d="M109.615 22.9442H112.958V11.0833H109.615V22.9433V22.9442ZM109.921 8.68418C109.55 8.32584 109.363 7.86501 109.363 7.30084C109.363 6.73584 109.55 6.27001 109.921 5.90251C110.292 5.53584 110.757 5.35251 111.314 5.35251C111.872 5.35251 112.34 5.53584 112.721 5.90251C113.102 6.26918 113.292 6.73584 113.292 7.30084C113.292 7.86501 113.102 8.32584 112.721 8.68418C112.34 9.04251 111.872 9.22084 111.314 9.22084C110.756 9.22084 110.292 9.04168 109.921 8.68418ZM116.802 21.475C115.668 20.3083 115.103 18.8217 115.103 17.0142C115.103 15.2067 115.668 13.7192 116.802 12.5525C117.934 11.3858 119.42 10.8025 121.259 10.8025C122.002 10.8025 122.679 10.8917 123.292 11.0692C123.905 11.2492 124.332 11.4233 124.574 11.5925L124.936 11.875L124.072 14.3033C123.348 13.8325 122.512 13.5975 121.565 13.5975C120.655 13.5975 119.912 13.9083 119.336 14.5292C118.761 15.15 118.473 15.9792 118.473 17.0142C118.473 18.0683 118.761 18.9008 119.336 19.5125C119.912 20.125 120.655 20.4308 121.565 20.4308C121.992 20.4308 122.414 20.3692 122.833 20.2475C123.25 20.125 123.562 20.0075 123.766 19.8942L124.072 19.725L124.908 22.125C124.815 22.2 124.68 22.2992 124.504 22.4217C124.327 22.5433 123.928 22.7083 123.305 22.915C122.684 23.1225 122.002 23.2258 121.259 23.2258C119.419 23.2258 117.935 22.6425 116.802 21.4758" fill="white"/>
<path fill-rule="evenodd" clip-rule="evenodd" d="M128.95 22.0167C128.95 22.3374 128.823 22.6449 128.597 22.8717C128.37 23.0985 128.063 23.2259 127.743 23.2259C127.422 23.2259 127.115 23.0985 126.889 22.8717C126.662 22.6449 126.535 22.3374 126.535 22.0167C126.535 21.696 126.662 21.3884 126.889 21.1617C127.115 20.9349 127.422 20.8075 127.743 20.8075C128.063 20.8075 128.37 20.9349 128.597 21.1617C128.823 21.3884 128.95 21.696 128.95 22.0167Z" fill="white"/>
<path fill-rule="evenodd" clip-rule="evenodd" d="M127.743 20.8083C127.422 20.8083 127.115 20.9357 126.889 21.1625C126.662 21.3893 126.535 21.6968 126.535 22.0175C126.535 22.3382 126.662 22.6458 126.889 22.8725C127.115 23.0993 127.422 23.2267 127.743 23.2267C128.063 23.2267 128.37 23.0993 128.597 22.8725C128.823 22.6458 128.95 22.3382 128.95 22.0175C128.95 21.6968 128.823 21.3893 128.597 21.1625C128.37 20.9357 128.063 20.8083 127.743 20.8083ZM127.743 21.0209C127.998 21.0337 128.239 21.1442 128.415 21.3296C128.591 21.5151 128.689 21.7612 128.689 22.0171C128.689 22.273 128.591 22.5191 128.415 22.7046C128.239 22.89 127.998 23.0005 127.743 23.0133C127.484 23.006 127.238 22.8978 127.057 22.7119C126.877 22.5259 126.776 22.2768 126.776 22.0175C126.776 21.7582 126.876 21.509 127.057 21.3229C127.237 21.1368 127.483 21.0285 127.742 21.0209" fill="white"/>
<path fill-rule="evenodd" clip-rule="evenodd" d="M126.971 21.685H127.581V21.845H127.368V22.4533H127.185V21.845H126.971V21.685ZM128.216 22.0292L128.053 22.2492H127.976L127.811 22.0275V22.4525H127.63L127.631 21.6842H127.779L128.014 22.0142L128.249 21.6842H128.396L128.398 22.4533H128.216V22.0292Z" fill="white"/>
</g>
</svg>
