<svg width="128" height="30" viewBox="0 0 128 30" fill="none" xmlns="http://www.w3.org/2000/svg">
<g clip-path="url(#clip0_453_694)">
<path d="M38.8391 12.6315L48.0852 3.474L44.578 0L37.0855 7.4205L29.593 0L26.0843 3.474L35.3311 12.6315C35.816 13.1115 36.4508 13.3515 37.0855 13.3515C37.7202 13.3515 38.3549 13.1115 38.8391 12.6315ZM52.2249 22.4137L44.7324 14.994L52.2241 7.5735L48.7169 4.0995L39.4708 13.257C39.2406 13.4844 39.0579 13.755 38.9332 14.0531C38.8085 14.3513 38.7443 14.671 38.7443 14.994C38.7443 15.317 38.8085 15.6367 38.9332 15.9349C39.0579 16.233 39.2406 16.5036 39.4708 16.731L48.7169 25.8885L52.2249 22.4137ZM37.0727 22.5795L44.5644 30L48.0732 26.526L38.8263 17.3685C38.3598 16.9076 37.7294 16.649 37.0723 16.649C36.4153 16.649 35.7848 16.9076 35.3183 17.3685L26.0722 26.526L29.5794 30L37.0727 22.5795ZM34.6874 16.743C34.9171 16.5154 35.0994 16.2448 35.2238 15.9467C35.3482 15.6487 35.4122 15.3291 35.4122 15.0064C35.4122 14.6836 35.3482 14.364 35.2238 14.066C35.0994 13.768 34.9171 13.4974 34.6874 13.2698L25.4412 4.11225L21.9325 7.58625L29.4258 15.006L21.9333 22.4265L25.4405 25.9005L34.6866 16.743H34.6874ZM21.8083 28.7955H14.0319L13.4725 25.293H8.40294L7.7893 28.7955H0.0136719L6.70732 1.20525H15.9083L21.8083 28.7948V28.7955ZM12.5885 19.3778L12.1014 16.161C12.0886 16.1497 12.0652 15.9885 12.0291 15.678C12.0058 15.417 11.8785 14.3805 11.6504 12.57C11.6263 12.3675 11.5962 12.09 11.56 11.739C11.5239 11.3865 11.4757 10.9425 11.4162 10.4062L11.1805 7.7985C11.158 8.049 11.1241 8.32875 11.0819 8.6385C11.0397 8.94825 10.9946 9.28725 10.9464 9.657C10.8888 10.1698 10.8285 10.6823 10.7657 11.1945C10.7295 11.4787 10.7062 11.652 10.6941 11.712L10.1708 15.0525L9.41339 19.3778H12.5885ZM68.2821 28.794V22.1655H61.8234V17.9475H67.6135V11.7127H61.8234V7.69275H68.2821V1.20525H54.3V28.794H68.2821ZM83.0797 22.1655H77.4326V1.20525H69.9092V28.7948H83.0797V22.1663V22.1655ZM106.182 28.7948H98.4073L97.8471 25.2922H92.7775L92.1639 28.7948H84.3875L91.0812 1.2045H100.283L106.182 28.794V28.7948ZM96.9639 19.3785L96.476 16.1618C96.4632 16.1505 96.4398 15.9893 96.4037 15.6788C96.3803 15.4178 96.2531 14.3812 96.025 12.5707C96.0001 12.3682 95.9715 12.0907 95.9346 11.7397C95.8985 11.3872 95.8503 10.9433 95.7916 10.407L95.5551 7.8C95.5318 8.04975 95.4987 8.3295 95.4565 8.64C95.4143 8.949 95.3692 9.288 95.321 9.6585C95.2366 10.3965 95.1764 10.9087 95.1403 11.1945C95.1041 11.4795 95.0808 11.6528 95.0695 11.7127L94.5454 15.0532L93.7872 19.3785H96.9639ZM127.617 28.7955H119.481L115.765 18.9675C115.712 18.744 115.648 18.5232 115.574 18.306C115.465 17.9776 115.354 17.6501 115.241 17.3235L115.294 19.146V28.7955H107.807V1.20525H115.511C118.903 1.20525 121.44 1.86675 123.126 3.18975C125.265 4.881 126.336 7.28775 126.336 10.407C126.336 13.7438 124.899 16.0492 122.024 17.3235L127.617 28.7948V28.7955ZM118.867 10.497C118.867 8.43675 117.778 7.407 115.601 7.407H115.33V13.9815H115.836C116.701 13.9815 117.424 13.6545 118.001 12.999C118.579 12.3443 118.867 11.5103 118.867 10.497Z" fill="white"/>
</g>
<defs>
<clipPath id="clip0_453_694">
<rect width="128" height="30" fill="white"/>
</clipPath>
</defs>
</svg>
