<svg width="100" height="30" viewBox="0 0 100 30" fill="none" xmlns="http://www.w3.org/2000/svg">
<mask id="mask0_452_358" style="mask-type:alpha" maskUnits="userSpaceOnUse" x="0" y="0" width="100" height="30">
<path fill-rule="evenodd" clip-rule="evenodd" d="M0 0H100V30H0V0Z" fill="white"/>
</mask>
<g mask="url(#mask0_452_358)">
<path fill-rule="evenodd" clip-rule="evenodd" d="M3.56898 23.7415C2.66324 21.7944 2.15732 19.622 2.15732 17.331C2.15732 8.95581 8.91842 2.1664 17.2587 2.1664C21.9027 2.1664 26.0569 4.27157 28.827 7.58328L30.4798 6.19076C27.3138 2.40591 22.5662 0 17.2587 0C7.72698 0 0 7.75937 0 17.331C0 19.9493 0.578165 22.4319 1.6133 24.6571L3.56898 23.7415Z" fill="white"/>
<path fill-rule="evenodd" clip-rule="evenodd" d="M17.2582 27.6214C11.5988 27.6214 7.01087 23.0142 7.01087 17.3311C7.01087 11.6479 11.5988 7.04075 17.2582 7.04075C20.4095 7.04075 23.228 8.46965 25.1078 10.7169L26.7609 9.324C24.4854 6.60367 21.0729 4.87439 17.2582 4.87439C10.4073 4.87439 4.85352 10.4514 4.85352 17.3311C4.85352 24.2108 10.4073 29.7877 17.2582 29.7877V27.6214Z" fill="white"/>
<path fill-rule="evenodd" clip-rule="evenodd" d="M20.9778 20.4642C20.0874 21.5286 18.7522 22.2054 17.2595 22.2054C14.5787 22.2054 12.4055 20.0232 12.4055 17.3311C12.4055 14.639 14.5787 12.4567 17.2595 12.4567C18.7522 12.4567 20.0874 13.1336 20.9778 14.198L22.8368 12.6315C21.5012 11.0348 19.4987 10.0195 17.2595 10.0195C13.2383 10.0195 9.97852 13.293 9.97852 17.3311C9.97852 21.369 13.2383 24.6426 17.2595 24.6426C19.3116 24.6426 21.1645 23.7895 22.488 22.418L20.9778 20.4642Z" fill="white"/>
<path fill-rule="evenodd" clip-rule="evenodd" d="M34.1016 14.9584H36.3196V16.4628H36.3586C36.566 15.9939 36.9259 15.5805 37.4384 15.2221C37.9506 14.8641 38.5572 14.6848 39.2576 14.6848C39.8672 14.6848 40.3892 14.7923 40.8239 15.0073C41.2584 15.2221 41.615 15.5055 41.894 15.8571C42.1728 16.2089 42.3772 16.6128 42.5069 17.0685C42.6364 17.5246 42.7016 17.9935 42.7016 18.4753V24.337H40.3667V19.1396C40.3667 18.866 40.3472 18.5797 40.3084 18.2799C40.2694 17.9806 40.1849 17.7103 40.0554 17.4692C39.9255 17.2283 39.747 17.0295 39.5202 16.8732C39.2932 16.7169 38.9915 16.6387 38.6155 16.6387C38.2391 16.6387 37.9152 16.7139 37.6427 16.8635C37.3703 17.0133 37.1465 17.2053 36.9715 17.4399C36.7964 17.6743 36.6633 17.9448 36.5726 18.2506C36.4817 18.5569 36.4364 18.866 36.4364 19.1788V24.337H34.1016V14.9584Z" fill="white"/>
<path fill-rule="evenodd" clip-rule="evenodd" d="M43.6934 16.8342V14.9585H45.3277V12.2426H47.6238V14.9585H49.9585V16.8342H47.6238V21.1912C47.6238 21.6083 47.6982 21.9532 47.8476 22.2268C47.9964 22.5004 48.3306 22.6371 48.8495 22.6371C49.0052 22.6371 49.1737 22.621 49.3554 22.5883C49.5368 22.5559 49.6989 22.5071 49.8418 22.4417L49.9197 24.2783C49.712 24.3565 49.4655 24.4183 49.1803 24.4641C48.8948 24.5095 48.6225 24.5323 48.3631 24.5323C47.7404 24.5323 47.2345 24.4445 46.8454 24.2686C46.4563 24.0928 46.1481 23.8519 45.9213 23.5456C45.6943 23.2398 45.5384 22.8881 45.4544 22.4905C45.3697 22.0935 45.3277 21.6669 45.3277 21.2108V16.8342H43.6934Z" fill="white"/>
<path fill-rule="evenodd" clip-rule="evenodd" d="M51.3594 14.9584H53.5969V16.5215H53.6359C53.8952 15.9744 54.2585 15.5318 54.7256 15.1928C55.1925 14.8543 55.7372 14.6848 56.3599 14.6848C56.4504 14.6848 56.5477 14.6882 56.6517 14.6946C56.7554 14.7013 56.8463 14.7175 56.9241 14.7434V16.8928C56.7683 16.8537 56.6352 16.8277 56.5252 16.8146C56.4148 16.8017 56.3079 16.7951 56.2041 16.7951C55.6723 16.7951 55.244 16.8928 54.92 17.0881C54.5957 17.2835 54.3427 17.5179 54.1612 17.7915C53.9794 18.065 53.8563 18.3453 53.7916 18.6318C53.7265 18.9183 53.6943 19.1463 53.6943 19.3155V24.337H51.3594V14.9584Z" fill="white"/>
<path fill-rule="evenodd" clip-rule="evenodd" d="M57.9948 24.3371H60.3297V14.9585H57.9948V24.3371ZM57.6641 11.7737C57.6641 11.3961 57.8032 11.0672 58.0823 10.787C58.3612 10.507 58.7147 10.3669 59.1428 10.3669C59.5709 10.3669 59.9308 10.5006 60.2227 10.7675C60.5145 11.0345 60.6605 11.3701 60.6605 11.7737C60.6605 12.1775 60.5145 12.5131 60.2227 12.7799C59.9308 13.0471 59.5709 13.1805 59.1428 13.1805C58.7147 13.1805 58.3612 13.0407 58.0823 12.7603C57.8032 12.4804 57.6641 12.1516 57.6641 11.7737Z" fill="white"/>
<path fill-rule="evenodd" clip-rule="evenodd" d="M63.3447 16.8342H61.5742V14.9585H63.3447V14.2571C63.3447 13.6972 63.4061 13.1599 63.5297 12.6452C63.6528 12.1308 63.8603 11.678 64.1522 11.2872C64.444 10.8965 64.8299 10.5872 65.31 10.3592C65.7896 10.1314 66.3928 10.0172 67.1195 10.0172C67.3787 10.0172 67.596 10.027 67.7714 10.0465C67.9463 10.0661 68.1245 10.1021 68.3064 10.154L68.1506 12.147C68.0207 12.1079 67.8814 12.0756 67.7324 12.0493C67.583 12.0233 67.424 12.0102 67.2556 12.0102C66.9182 12.0102 66.6458 12.0756 66.4384 12.2056C66.2308 12.3359 66.0719 12.5054 65.9617 12.7136C65.8513 12.922 65.7769 13.1502 65.7379 13.3975C65.6991 13.645 65.6796 13.8859 65.6796 14.1203V14.9585H67.8393V16.8342H65.6796V24.3371H63.3447V16.8342Z" fill="white"/>
<path fill-rule="evenodd" clip-rule="evenodd" d="M77.6078 24.337H75.3897V22.8325H75.3507C75.1432 23.3013 74.7831 23.7151 74.271 24.0731C73.7584 24.4313 73.1522 24.6106 72.4516 24.6106C71.8418 24.6106 71.3198 24.503 70.8854 24.2881C70.4507 24.0731 70.094 23.7898 69.8151 23.4382C69.5361 23.0863 69.3318 22.6828 69.2023 22.2267C69.0726 21.7708 69.0078 21.3019 69.0078 20.82V14.9584H71.3427V20.1556C71.3427 20.4292 71.3622 20.7158 71.401 21.0154C71.44 21.3152 71.5241 21.5854 71.654 21.8261C71.7835 22.0674 71.9618 22.2657 72.189 22.422C72.4159 22.5785 72.7175 22.6566 73.0939 22.6566C73.4566 22.6566 73.7778 22.5819 74.0568 22.4319C74.3357 22.2822 74.5627 22.09 74.7379 21.8554C74.913 21.621 75.0459 21.3508 75.1368 21.0447C75.2275 20.7388 75.2729 20.4292 75.2729 20.1165V14.9584H77.6078V24.337Z" fill="white"/>
<path fill-rule="evenodd" clip-rule="evenodd" d="M26.3102 17.0783C26.7966 16.6552 27.39 16.4433 28.0905 16.4433C28.4667 16.4433 28.7939 16.5053 29.0732 16.6289C29.3519 16.7529 29.5821 16.919 29.7639 17.1271C29.9453 17.3357 30.0782 17.5765 30.1628 17.8501C30.2469 18.1236 30.2893 18.4103 30.2893 18.7098H25.5029C25.5544 18.0454 25.8238 17.5017 26.3102 17.0783ZM30.6393 21.4843C30.3798 21.8623 30.049 22.1585 29.6472 22.3732C29.2449 22.5882 28.752 22.6956 28.1683 22.6956C27.8309 22.6956 27.5068 22.6371 27.1955 22.5198C26.8841 22.4026 26.6052 22.2431 26.3588 22.0412C26.1123 21.8393 25.9143 21.5984 25.7655 21.3181C25.6163 21.0383 25.5286 20.7291 25.5029 20.3901H32.6046C32.6173 20.2861 32.6241 20.1819 32.6241 20.0775V19.765C32.6241 18.9183 32.5104 18.1791 32.2835 17.5472C32.0565 16.9156 31.7417 16.388 31.3399 15.9646C30.9377 15.5415 30.461 15.2221 29.9098 15.0073C29.3583 14.7923 28.7585 14.6848 28.11 14.6848C27.4095 14.6848 26.7576 14.8055 26.1546 15.0464C25.5515 15.2875 25.0292 15.6261 24.5882 16.0623C24.1472 16.4989 23.8002 17.0264 23.5474 17.6449C23.2943 18.2637 23.168 18.951 23.168 19.7062C23.168 20.4749 23.2943 21.1619 23.5474 21.7676C23.8002 22.3732 24.1504 22.8846 24.598 23.3014C25.0454 23.7185 25.5739 24.0408 26.1837 24.2686C26.7934 24.4963 27.4614 24.6106 28.1878 24.6106C29.7558 24.6106 30.9905 24.1089 31.893 23.1063L30.6393 21.4843Z" fill="white"/>
<path fill-rule="evenodd" clip-rule="evenodd" d="M93.6051 17.0783C94.0913 16.6552 94.6849 16.4433 95.3853 16.4433C95.7615 16.4433 96.0888 16.5053 96.3681 16.6289C96.6468 16.7529 96.8768 16.919 97.0586 17.1271C97.2402 17.3357 97.3731 17.5765 97.4575 17.8501C97.5418 18.1236 97.584 18.4103 97.584 18.7098H92.7976C92.8493 18.0454 93.1187 17.5017 93.6051 17.0783ZM97.9343 21.4843C97.6747 21.8623 97.3439 22.1585 96.942 22.3732C96.5396 22.5882 96.047 22.6956 95.4632 22.6956C95.1257 22.6956 94.8017 22.6371 94.4904 22.5198C94.179 22.4026 93.8999 22.2431 93.6538 22.0412C93.4073 21.8393 93.2092 21.5984 93.0602 21.3181C92.911 21.0383 92.8235 20.7291 92.7976 20.3901H99.8996C99.9123 20.2861 99.9189 20.1819 99.9189 20.0775V19.765C99.9189 18.9183 99.8053 18.1791 99.5783 17.5472C99.3513 16.9156 99.0366 16.388 98.6348 15.9646C98.2325 15.5415 97.7557 15.2221 97.2046 15.0073C96.6531 14.7923 96.0532 14.6848 95.4047 14.6848C94.7044 14.6848 94.0525 14.8055 93.4495 15.0464C92.8462 15.2875 92.3241 15.6261 91.8831 16.0623C91.442 16.4989 91.0951 17.0264 90.8421 17.6449C90.5892 18.2637 90.4629 18.951 90.4629 19.7062C90.4629 20.4749 90.5892 21.1619 90.8421 21.7676C91.0951 22.3732 91.4454 22.8846 91.8928 23.3014C92.3404 23.7185 92.8688 24.0408 93.4785 24.2686C94.0881 24.4963 94.7561 24.6106 95.4827 24.6106C97.0507 24.6106 98.2854 24.1089 99.1879 23.1063L97.9343 21.4843Z" fill="white"/>
<path fill-rule="evenodd" clip-rule="evenodd" d="M86.6153 20.6991C86.4856 21.0562 86.3006 21.3711 86.0609 21.6436C85.8207 21.9161 85.5287 22.1337 85.1852 22.2961C84.8414 22.4585 84.4555 22.5393 84.0275 22.5393C83.6123 22.5393 83.2394 22.4552 82.9087 22.2862C82.5779 22.1175 82.2988 21.8933 82.072 21.6143C81.845 21.3354 81.6699 21.0203 81.5468 20.6698C81.4233 20.3193 81.362 19.9561 81.362 19.5792C81.362 19.164 81.4233 18.7746 81.5468 18.411C81.6699 18.0472 81.845 17.7325 82.072 17.4664C82.2988 17.2001 82.5779 16.9892 82.9087 16.8334C83.2394 16.6778 83.6189 16.5996 84.047 16.5996C84.475 16.5996 84.8575 16.6778 85.1949 16.8334C85.5321 16.9892 85.8207 17.2035 86.0609 17.4761C86.3006 17.7488 86.4856 18.0668 86.6153 18.43C86.7448 18.7938 86.8097 19.177 86.8097 19.5792C86.8097 19.9688 86.7448 20.3423 86.6153 20.6991ZM86.8097 14.9584V16.3651H86.7709C86.4335 15.7921 85.9795 15.3687 85.409 15.0952C84.838 14.8216 84.2221 14.6848 83.5606 14.6848C82.86 14.6848 82.2276 14.8152 81.6634 15.0757C81.0992 15.3363 80.6192 15.688 80.2235 16.1307C79.8278 16.5737 79.5233 17.0948 79.3092 17.6938C79.0951 18.2931 78.9883 18.9314 78.9883 19.6087C78.9883 20.273 79.0983 20.9015 79.3189 21.494C79.5394 22.087 79.8473 22.6047 80.243 23.0473C80.6385 23.4903 81.1217 23.8421 81.6926 24.1024C82.2632 24.3629 82.899 24.4933 83.5995 24.4933C84.248 24.4933 84.835 24.3715 85.3604 24.1281C85.8856 23.8848 86.3167 23.5327 86.6543 23.0721H86.6931V23.7584C86.6931 24.2292 86.6445 24.6605 86.5473 25.0528C86.45 25.4448 86.2876 25.7849 86.0609 26.0725C85.8337 26.3601 85.5287 26.5854 85.1462 26.749C84.7636 26.9123 84.2933 26.9942 83.7357 26.9942C83.152 26.9942 82.5747 26.88 82.004 26.6522C81.448 26.4302 80.9478 26.1124 80.5029 25.699L79.1242 27.4827C79.4226 27.73 79.7598 27.9515 80.1362 28.147C80.5121 28.3423 80.9046 28.505 81.3133 28.6354C81.7219 28.7655 82.1368 28.8632 82.5586 28.9284C82.9799 28.9934 83.3788 29.0261 83.755 29.0261C84.6629 29.0261 85.4478 28.8957 86.1094 28.6354C86.7709 28.3746 87.3189 28.0069 87.7536 27.5315C88.1879 27.0558 88.509 26.4763 88.7167 25.7926C88.9241 25.1087 89.028 24.3433 89.028 23.4966V14.9584H86.8097Z" fill="white"/>
</g>
</svg>
