<svg width="118" height="30" viewBox="0 0 118 30" fill="none" xmlns="http://www.w3.org/2000/svg">
<g clip-path="url(#clip0_452_361)">
<path d="M66.4541 9.72793L64.6386 22.3093C64.6386 22.3093 64.6077 22.3093 64.6027 22.3093L63.0127 9.72793H58.4891L56.894 22.3093C56.894 22.3093 56.8632 22.3093 56.8581 22.3093L55.0425 9.72793H52.2832L54.5348 24.2947H59.0481L60.7149 11.739C60.7149 11.739 60.7458 11.739 60.7509 11.739L62.3973 24.2999H66.9157L69.2186 9.73813H66.4644C66.4644 9.73813 66.4541 9.69733 66.4541 9.72793Z" fill="white"/>
<path d="M117.107 10.4068C116.773 10.0389 116.361 9.74988 115.9 9.56097C115.439 9.37197 114.942 9.2878 114.445 9.31454C113.776 9.28617 113.113 9.45203 112.536 9.7918C111.959 10.1316 111.495 10.6308 111.198 11.2285C111.012 10.7029 110.681 10.2397 110.244 9.89131C109.711 9.49034 109.055 9.28651 108.387 9.31454C107.743 9.29885 107.108 9.47671 106.567 9.82488C106.115 10.1388 105.76 10.5718 105.541 11.0754V9.72794H102.854V24.2897H105.541V14.3369C105.512 13.7017 105.692 13.0745 106.054 12.5504C106.213 12.3385 106.424 12.1693 106.666 12.0579C106.908 11.9466 107.173 11.8966 107.439 11.9125C107.661 11.9023 107.884 11.9431 108.089 12.0316C108.293 12.1201 108.474 12.2539 108.618 12.4229C108.935 12.8169 109.097 13.3121 109.075 13.8163V24.2795H111.767V14.5053C111.708 13.8048 111.889 13.1047 112.281 12.5198C112.442 12.3225 112.646 12.165 112.878 12.0596C113.11 11.9542 113.364 11.9039 113.619 11.9125C113.854 11.8864 114.092 11.9195 114.311 12.0086C114.529 12.0979 114.722 12.2402 114.871 12.4229C115.163 12.8635 115.309 13.3852 115.286 13.9132V24.2641H117.994V13.1987C118.047 12.192 117.732 11.2003 117.107 10.4068Z" fill="white"/>
<path d="M85.5498 22.7219L83.847 24.6154H83.8214L80.8159 22.0277L77.2257 24.1152C76.6389 24.4548 75.971 24.6311 75.2921 24.6256C74.2745 24.6179 73.297 24.2298 72.5533 23.5385C72.172 23.1827 71.87 22.7514 71.6668 22.2722C71.4636 21.7931 71.3637 21.2768 71.3737 20.7568C71.3717 20.0744 71.5521 19.4038 71.8965 18.8136C72.2407 18.2235 72.7365 17.735 73.3329 17.3983L80.5697 13.2692V12.3505H72.0917V9.79846H83.1546V20.7006L85.5242 22.7423L85.5498 22.7219ZM75.9076 21.8746L80.5697 19.1796V16.2704H80.5389L74.5997 19.6645C74.3969 19.7736 74.228 19.936 74.1113 20.134C73.9946 20.332 73.9348 20.5579 73.9381 20.7874C73.946 21.1274 74.0851 21.4514 74.3268 21.6919C74.5685 21.9323 74.894 22.0709 75.2357 22.0787C75.4744 22.0739 75.707 22.0033 75.9076 21.8746Z" fill="white"/>
<path d="M98.5138 10.7186C98.0711 10.2622 97.5388 9.90082 96.9505 9.65671C96.3623 9.41268 95.73 9.29122 95.0927 9.29971C94.3502 9.2794 93.6138 9.43762 92.9463 9.76111C92.2779 10.0845 91.6982 10.5636 91.2564 11.1576L89.5432 9.59577H89.5174L87.8301 11.4689L90.2616 13.6636V21.6769H87.8456V24.1932H96.5647V21.6769H92.8774V14.2557C92.8653 13.6777 93.0686 13.1157 93.4467 12.677C93.8257 12.2383 94.3528 11.9536 94.929 11.8772C95.2443 11.8474 95.5638 11.8835 95.8644 11.9833C96.1659 12.083 96.4432 12.2442 96.6775 12.4565C96.9126 12.6688 97.1013 12.9276 97.2296 13.2163C97.3588 13.505 97.426 13.8173 97.426 14.1332V14.9702H99.9548V14.1332C99.9625 13.4961 99.8394 12.8642 99.5913 12.2767C99.3433 11.6893 98.9763 11.1589 98.5138 10.7186Z" fill="white"/>
<path d="M49.5699 18.2408C49.3971 17.8454 49.1337 17.4957 48.8006 17.2199C48.454 16.8924 48.0414 16.6419 47.5902 16.485C47.1425 16.2713 46.6754 16.1004 46.1952 15.9746C45.713 15.8469 45.1694 15.7092 44.6155 15.602C43.7399 15.4644 42.8939 15.1815 42.1126 14.7649C41.8822 14.6428 41.6887 14.4615 41.5525 14.2397C41.4164 14.018 41.3423 13.7641 41.3382 13.5042C41.3208 13.2419 41.3761 12.9799 41.4982 12.7468C41.6203 12.5136 41.8045 12.3184 42.0306 12.1823C42.7028 11.7643 43.513 11.6251 44.2872 11.7944C45.0291 11.9782 45.711 12.3491 46.2669 12.8714C46.3849 12.9683 47.5543 14.0452 47.5338 14.0708L49.2212 12.167C49.2212 12.167 48.4108 11.3504 48.0262 11.0135C47.1223 10.1744 46.0018 9.60181 44.7899 9.35975C43.5252 9.16449 42.2308 9.36052 41.0817 9.92126C40.7775 10.0765 40.4905 10.263 40.2252 10.4776C39.7539 10.8476 39.3752 11.3213 39.1189 11.8615C38.8626 12.4018 38.7357 12.9937 38.7481 13.591C38.7481 14.9181 39.1687 15.8623 40.0303 16.4799C41.0691 17.1818 42.2455 17.6566 43.482 17.8732C44.4565 18.0459 45.408 18.3285 46.3183 18.7154C46.5593 18.7924 46.7688 18.9447 46.9159 19.1499C47.0628 19.3549 47.1392 19.6018 47.1338 19.8536C47.1451 20.1594 47.0741 20.4627 46.9279 20.7319C46.7818 21.0011 46.566 21.2266 46.3029 21.3848C45.6586 21.7486 44.9305 21.9397 44.1898 21.9397C43.4491 21.9397 42.721 21.7486 42.0767 21.3848C41.5539 21.0453 41.0644 20.6574 40.615 20.2262C40.2508 19.92 39.9072 19.5882 39.5533 19.2615L37.9121 21.2265C37.9121 21.2265 38.7122 21.9718 38.784 22.033C39.8268 23.0852 41.1424 23.8289 42.5845 24.1818C43.1175 24.2922 43.6607 24.347 44.2051 24.3451C45.6508 24.3941 47.0703 23.9533 48.2313 23.0947C48.7728 22.6914 49.2082 22.1638 49.5002 21.5566C49.7923 20.9496 49.9323 20.2812 49.9084 19.6086C49.9013 19.133 49.7856 18.6652 49.5699 18.2408Z" fill="white"/>
<path d="M0 26.117L6.90855 29.9757L13.8171 26.117V18.415L6.90855 14.5514L0 18.415V26.117Z" fill="white"/>
<path d="M22.8385 0.0251465L19.1867 2.06674L19.1816 2.09737V6.17547L22.8385 8.21706L22.8693 8.23238L26.521 6.19588V2.08206L22.8385 0.0251465Z" fill="white"/>
<path d="M29.6296 18.415L22.7211 14.5514L15.8125 18.415V26.117L22.7211 29.9757L29.6296 26.117V18.415Z" fill="white"/>
<path d="M14.7597 1.10156L7.86133 4.96018V12.6621L14.7699 16.5207L21.6784 12.6621V9.5946L18.3139 7.71634L17.4061 7.21105V6.17493V2.67359L14.7597 1.10156Z" fill="white"/>
</g>
<defs>
<clipPath id="clip0_452_361">
<rect width="118" height="30" fill="white"/>
</clipPath>
</defs>
</svg>
