<svg width="126" height="30" viewBox="0 0 126 30" fill="none" xmlns="http://www.w3.org/2000/svg">
<g clip-path="url(#clip0_452_371)">
<path fill-rule="evenodd" clip-rule="evenodd" d="M17.8033 0.739114C17.129 0.513497 16.4546 0.28788 15.7987 0.0622628C14.9744 -0.238473 14.1687 0.607526 14.2064 1.7167C14.2812 3.82211 14.3561 5.90861 14.431 8.01402C14.4499 8.70953 14.1124 9.34881 13.5878 9.61199C12.5389 10.1194 11.471 10.6082 10.403 11.097C9.335 10.6271 8.26728 10.1194 7.21814 9.61199C6.67472 9.34881 6.35642 8.70953 6.37527 8.01402C6.45013 5.90861 6.525 3.82211 6.59986 1.7167C6.63755 0.588615 5.83186 -0.238473 5.00757 0.0622628C4.33301 0.28788 3.6773 0.532408 3.00301 0.739114C2.45959 0.927173 2.04759 1.52864 1.9913 2.2617C1.80388 4.74323 1.59787 7.22449 1.41045 9.68711C1.35418 10.3826 1.67274 11.0219 2.19731 11.3037C3.37759 11.9241 3.26529 13.9544 1.97246 14.4243C1.39187 14.6312 0.960751 15.2139 0.904473 15.9093C0.605018 19.6878 0.305041 23.4852 0.00532431 27.2637C-0.0509543 27.9967 0.342472 28.6737 1.01703 28.9368C1.82247 29.2562 2.64701 29.5758 3.4713 29.8954C4.50185 30.2902 5.607 29.5194 5.64444 28.3916C5.75673 24.9891 5.88787 21.5865 6.00043 18.1652C6.01902 17.4697 6.43155 16.8682 7.01213 16.6426C8.15499 16.1914 9.27925 15.7401 10.403 15.2514C11.527 15.7215 12.6513 16.1914 13.7941 16.6426C14.3747 16.8682 14.7872 17.4697 14.8057 18.1652C14.9184 21.5679 15.0492 24.9703 15.1617 28.3916C15.1992 29.5194 16.3044 30.2713 17.3349 29.8954C18.1592 29.5758 18.9837 29.2562 19.7892 28.9368C20.4449 28.6737 20.8572 27.9967 20.8009 27.2637C20.5012 23.4852 20.2012 19.6878 19.9018 15.9093C19.8454 15.2139 19.4335 14.6312 18.8338 14.4243C17.5409 13.9734 17.4287 11.9241 18.6089 11.3037C19.1521 11.0219 19.4521 10.364 19.3958 9.68711C19.2084 7.20585 19.0023 4.72431 18.8149 2.2617C18.7586 1.52864 18.3467 0.908262 17.8033 0.739114Z" fill="#6309FF"/>
<path fill-rule="evenodd" clip-rule="evenodd" d="M35.7949 6.00378H39.6213V11.899H45.7672V6.00378H49.5938V21.0132H45.7672V14.9048H39.6213V21.0132H35.7949V6.00378Z" fill="#6309FF"/>
<path fill-rule="evenodd" clip-rule="evenodd" d="M54.8984 6.00378H58.7057V14.9822C58.7057 15.8742 58.957 16.5723 59.4402 17.0767C59.9232 17.5809 60.6189 17.8328 61.5079 17.8328C62.3774 17.8328 63.0732 17.5809 63.5758 17.096C64.0784 16.6112 64.3294 15.8937 64.3294 14.9822V6.00378H68.1561V15.2149C68.1561 17.096 67.5568 18.5698 66.3395 19.6364C65.1219 20.7028 63.5179 21.2265 61.4888 21.2265C60.3679 21.2265 59.3821 21.0908 58.551 20.7997C57.7005 20.509 57.0051 20.1018 56.4832 19.5587C55.9614 19.0157 55.5555 18.3952 55.3044 17.6778C55.0532 16.9603 54.9175 16.1263 54.9175 15.2149V6.00378H54.8984Z" fill="#6309FF"/>
<path fill-rule="evenodd" clip-rule="evenodd" d="M73.4531 6.00378H78.1494L81.4157 13.4891H81.5704L84.7785 6.00378H89.4939V21.0132H85.7832V15.3507L85.996 11.2978H85.8413L81.4929 20.7997L77.1448 11.2978H76.9707L77.1833 15.3894V21.0132H73.4531V6.00378Z" fill="#6309FF"/>
<path fill-rule="evenodd" clip-rule="evenodd" d="M102.56 15.7977L102.116 14.4014L100.918 10.0382H100.782L99.4875 14.4014L99.0428 15.7977H102.56ZM98.5394 6.00378H103.003L108.415 21.0132H104.202L103.487 18.7442H98.0947L97.3605 21.0132H93.3984L98.5394 6.00378Z" fill="#6309FF"/>
<path fill-rule="evenodd" clip-rule="evenodd" d="M112.068 6.00378H116.456L121.79 15.5446H121.944L121.732 11.3172V6.00378H125.539V21.0132H121.171L115.876 11.5694H115.721L115.915 15.661V21.0132H112.088V6.00378H112.068Z" fill="#6309FF"/>
</g>
<defs>
<clipPath id="clip0_452_371">
<rect width="126" height="30" fill="white"/>
</clipPath>
</defs>
</svg>
