<svg width="45" height="45" viewBox="0 0 45 45" fill="none" xmlns="http://www.w3.org/2000/svg">
<path d="M27.5439 18.1614C27.2664 17.102 26.6106 16.4209 25.5259 16.1182C24.6179 15.866 23.6846 15.7651 22.7513 15.7147C21.6919 15.7399 20.6072 15.8156 19.573 16.1182C18.4884 16.4209 17.8326 17.102 17.5551 18.1614C17.4037 18.7416 17.3533 19.3469 17.3281 19.9271C17.2776 20.482 17.2776 20.5577 17.656 20.5577H27.1907C27.8466 20.5577 27.8466 20.5577 27.7709 19.9019C27.7457 19.3469 27.67 18.7416 27.5439 18.1614Z" fill="#496DDB"/>
<path d="M27.3673 24.4423H17.8578C17.202 24.4423 17.202 24.4423 17.2776 25.0981C17.3029 25.6782 17.3533 26.2836 17.5047 26.8638C17.7821 27.9232 18.438 28.6043 19.5226 28.9069C20.4307 29.1592 21.364 29.2601 22.2973 29.3105C23.3567 29.2853 24.4413 29.2096 25.4755 28.9069C26.5602 28.6043 27.216 27.9232 27.4935 26.8638C27.6448 26.2836 27.6953 25.6782 27.7205 25.0981C27.7709 24.5432 27.7709 24.4675 27.3673 24.4423Z" fill="#496DDB"/>
<path d="M22.5 0C10.0897 0 0 10.0897 0 22.5C0 34.9103 10.0897 45 22.5 45C34.9355 45 45 34.9103 45 22.5C45 10.0897 34.9355 0 22.5 0ZM31.9843 17.4299C32.0852 18.0858 32.1609 18.7416 32.2365 19.4226V20.583H35.7175C35.995 20.583 36.2472 20.583 36.4994 20.6334C37.1048 20.7343 37.4832 21.0874 37.5084 21.6676V23.3576C37.4832 23.9378 37.1048 24.2909 36.4994 24.3918C36.2472 24.4423 35.995 24.4423 35.7175 24.4423H32.1861V25.5774C32.1104 26.2584 32.0348 26.9142 31.9339 27.5701C31.833 28.2259 31.6564 28.8061 31.4294 29.3105H35.8941C36.4238 29.3105 36.9282 29.361 37.2814 29.8655C37.8111 30.6979 37.5336 31.8077 36.7012 32.3374C36.6003 32.4131 36.4742 32.4888 36.3481 32.514C35.4148 32.8167 34.4563 32.8672 33.4725 32.9176C29.4619 32.9933 25.3503 33.0185 22.5757 33.0185C19.2965 33.0185 14.9075 32.968 11.5779 32.8924C10.5942 32.8671 9.63565 32.8167 8.72758 32.4888C8.57623 32.4636 8.47534 32.4131 8.37444 32.3122C7.54204 31.7825 7.26457 30.6979 7.79428 29.8402C8.1222 29.3358 8.62668 29.2853 9.15639 29.2853H13.5706C13.3688 28.7808 13.1923 28.2007 13.0914 27.5701C12.9905 26.9142 12.9148 26.2584 12.8391 25.5774V24.417H9.30774C9.03027 24.417 8.77803 24.417 8.52578 24.3666C7.9204 24.2657 7.54204 23.9126 7.51682 23.3324V21.6424C7.54204 21.0622 7.9204 20.7091 8.52578 20.6082C8.77803 20.5577 9.03027 20.5577 9.30774 20.5577H12.8391V19.4226C12.9148 18.7416 12.9905 18.0858 13.0914 17.4299C13.1923 16.7741 13.3688 16.1939 13.5959 15.6895H9.13117C8.60146 15.6895 8.09697 15.639 7.74383 15.1345C7.21413 14.3021 7.49159 13.1923 8.32399 12.6626C8.42489 12.5869 8.55101 12.5112 8.67713 12.486C9.61043 12.1833 10.5689 12.1328 11.5275 12.0824C15.5381 12.0067 19.6497 11.9815 22.4243 11.9815C25.7035 11.9815 30.1177 12.0319 33.4221 12.1076C34.4058 12.1328 35.3643 12.1833 36.2724 12.5112C36.4238 12.5364 36.5247 12.5869 36.6256 12.6878C37.458 13.2175 37.7354 14.3021 37.2057 15.1598C36.8778 15.6642 36.3733 15.7147 35.8436 15.7147H31.4294C31.7068 16.2192 31.8582 16.7741 31.9843 17.4299Z" fill="#496DDB"/>
</svg>
