<svg width="188" height="29" viewBox="0 0 188 29" fill="none" xmlns="http://www.w3.org/2000/svg">
<path d="M0 21.4793H5.11363V13.5674H9.02405C11.8817 13.5674 14.1978 13.056 15.9726 12.0031C17.7473 10.9502 18.6196 9.50622 18.6196 7.67116V6.43776C18.6196 1.98548 14.2881 0.421161 9.02405 0.421161H0V21.4793ZM13.7466 7.55083C13.7466 8.8444 12.002 9.59647 9.26469 9.59647H5.11363V4.4222H9.26469C12.2426 4.4222 13.7466 5.14419 13.7466 6.55809V7.55083Z" fill="#F3B932"/>
<path d="M37.0689 8.51349H25.9693V0.421161H20.8857V21.4793H25.9693V12.695H37.0689V21.4793H42.1524V0.421161H37.0689V8.51349Z" fill="#F3B932"/>
<path d="M45.179 21.4793H63.5279V17.2977H50.2625V12.695H62.8661V8.51349H50.2625V4.6027H63.3775V0.421161H45.179V21.4793Z" fill="#F3B932"/>
<path d="M82.4641 14.5L71.0035 0.421161H65.7395V21.4793H70.8531V7.40042L82.2836 21.4793H87.5476V0.421161H82.4641V14.5Z" fill="#F3B932"/>
<path d="M90.2656 12.2137C90.2656 15.1017 91.2884 17.4481 93.3338 19.223C95.4093 20.9979 98.2369 21.9004 101.816 21.9004C105.426 21.9004 108.254 20.9979 110.299 19.223C112.375 17.4481 113.397 15.1017 113.397 12.2137V9.8973C113.397 2.85788 108.675 0 101.816 0C94.9882 0 90.2656 2.85788 90.2656 9.8973V12.2137ZM108.284 12.2137C108.284 15.6732 106.028 17.7189 101.816 17.7189C97.6954 17.7189 95.3792 15.6732 95.3792 12.2137V9.8973C95.3792 7.76141 95.8906 6.28735 96.8833 5.44502C97.906 4.6027 99.5604 4.18154 101.816 4.18154C106.359 4.18154 108.284 5.68568 108.284 9.8973V12.2137Z" fill="#F3B932"/>
<path d="M129.172 15.4025L122.885 0.421161H116.147L116.147 24.4876H120.659L120.659 6.70851L126.916 21.4793H131.428L137.805 6.85892L137.805 24.4876H142.204L142.197 0.421161H135.549L129.172 15.4025Z" fill="#F3B932"/>
<path d="M145.201 21.4793H163.55V17.2977H150.285V12.695H162.889V8.51349H150.285V4.6027H163.4V0.421161H145.201V21.4793Z" fill="#F3B932"/>
<path d="M182.486 14.5L171.026 0.421161H165.762V21.4793H170.876V7.40042L182.306 21.4793H187.57V0.421161H182.486V14.5Z" fill="#F3B932"/>
<path fill-rule="evenodd" clip-rule="evenodd" d="M137.805 29V24.4876H142.204L137.805 29Z" fill="#F3B932"/>
<path fill-rule="evenodd" clip-rule="evenodd" d="M187.437 29L137.805 29V24.4876L187.437 24.4875V29Z" fill="#F3B932"/>
<path fill-rule="evenodd" clip-rule="evenodd" d="M120.659 29H3.94454e-07L0 24.4876H120.659V29Z" fill="#F3B932"/>
</svg>
